<?xml version="1.0" encoding="UTF-8" standalone="no"?>
<svg width="60px" height="60px" viewBox="0 0 60 60" version="1.1" xmlns="http://www.w3.org/2000/svg" xmlns:xlink="http://www.w3.org/1999/xlink" xmlns:sketch="http://www.bohemiancoding.com/sketch/ns">
    <!-- Generator: Sketch 3.2.2 (9983) - http://www.bohemiancoding.com/sketch -->
    <title>Campfire</title>
    <desc>Created with Sketch.</desc>
    <defs></defs>
    <g id="outlined" stroke="none" stroke-width="1" fill="none" fill-rule="evenodd" sketch:type="MSPage">
        <g id="Activities_sliced" sketch:type="MSLayerGroup" transform="translate(-240.000000, -240.000000)"></g>
        <g id="Activities" sketch:type="MSLayerGroup" transform="translate(-254.000000, -241.000000)" stroke="#535353" stroke-width="2" stroke-linecap="round" stroke-linejoin="round">
            <g id="Campfire" transform="translate(260.000000, 242.000000)" sketch:type="MSShapeGroup">
                <path d="M24.5,40.9876159 L2.67883911,35.1406535 L0.922647055,41.6948514 L11.3916041,44.5 L24.5,40.9876159 Z M37.6083959,44.5 L48.0773529,47.3051486 L46.3211609,53.8593465 L24.5,48.0123841 L37.6083959,44.5 Z" id="Rectangle-1044"></path>
                <rect id="Rectangle-1046" transform="translate(24.500000, 44.500000) rotate(-15.000000) translate(-24.500000, -44.500000) " x="1" y="41.1072975" width="47" height="6.78540504"></rect>
                <path d="M23,35 C30.1797017,35 36,29.1797017 36,22 C36,14.8202983 23,0.98341465 23,0.98341465 C23,0.98341465 10,14.8202983 10,22 C10,29.1797017 15.8202983,35 23,35 Z" id="Oval-848"></path>
                <path d="M23,31.0750094 C25.7614237,31.0750094 28,28.8364331 28,26.0750094 C28,23.3135856 23,17.9917073 23,17.9917073 C23,17.9917073 18,23.3135856 18,26.0750094 C18,28.8364331 20.2385763,31.0750094 23,31.0750094 Z" id="Oval-849"></path>
            </g>
        </g>
    </g>
</svg>