<?xml version="1.0" encoding="UTF-8" standalone="no"?>
<svg width="60px" height="60px" viewBox="0 0 60 60" version="1.1" xmlns="http://www.w3.org/2000/svg" xmlns:xlink="http://www.w3.org/1999/xlink" xmlns:sketch="http://www.bohemiancoding.com/sketch/ns">
    <!-- Generator: Sketch 3.2.2 (9983) - http://www.bohemiancoding.com/sketch -->
    <title>Karatetool</title>
    <desc>Created with Sketch.</desc>
    <defs></defs>
    <g id="outlined" stroke="none" stroke-width="1" fill="none" fill-rule="evenodd" sketch:type="MSPage">
        <g id="Activities_sliced" sketch:type="MSLayerGroup" transform="translate(0.000000, -360.000000)"></g>
        <g id="Activities" sketch:type="MSLayerGroup" transform="translate(-14.000000, -361.000000)" stroke="#535353" stroke-width="2" stroke-linejoin="round">
            <g id="Karatetool" transform="translate(22.000000, 360.000000)" sketch:type="MSShapeGroup">
                <g id="Rectangle-1069-+-Line" transform="translate(0.000000, 26.000000)">
                    <rect id="Rectangle-1069" stroke-linecap="round" x="0" y="0" width="9" height="34"></rect>
                    <path d="M1,27 L8,27" id="Line" stroke-linecap="square"></path>
                </g>
                <g id="Rectangle-1069-+-Line" transform="translate(38.500000, 28.000000) rotate(-21.000000) translate(-38.500000, -28.000000) translate(34.000000, 11.000000)">
                    <rect id="Rectangle-1069" stroke-linecap="round" x="0" y="0" width="9" height="34"></rect>
                    <path d="M1,27 L8,27" id="Line" stroke-linecap="square"></path>
                </g>
                <rect id="Rectangle-1070" stroke-linecap="round" transform="translate(7.500000, 19.000000) rotate(28.000000) translate(-7.500000, -19.000000) " x="4" y="14" width="7" height="10" rx="2"></rect>
                <rect id="Rectangle-1070" stroke-linecap="round" transform="translate(15.500000, 9.000000) rotate(50.000000) translate(-15.500000, -9.000000) " x="12" y="4" width="7" height="10" rx="2"></rect>
                <rect id="Rectangle-1070" stroke-linecap="round" transform="translate(27.500000, 6.000000) rotate(116.000000) translate(-27.500000, -6.000000) " x="24" y="1" width="7" height="10" rx="2"></rect>
                <path d="M4.55069547,26.5422698 C4.55069837,26.3130306 6.52024238,20.7949098 6.52024238,20.7949098" id="Path-2054" stroke-linecap="round"></path>
                <path d="M8.5109734,16.8738928 L13.8552727,10.4574009" id="Path-2056" stroke-linecap="round"></path>
                <path d="M17.1869335,7.49160947 L26.0729782,5.29424659" id="Path-2057" stroke-linecap="round"></path>
                <path d="M29.7001802,6.97888276 L33.0715411,12.8668859" id="Path-2058" stroke-linecap="round"></path>
            </g>
        </g>
    </g>
</svg>