<?xml version="1.0" encoding="UTF-8" standalone="no"?>
<svg width="60px" height="60px" viewBox="0 0 60 60" version="1.1" xmlns="http://www.w3.org/2000/svg" xmlns:xlink="http://www.w3.org/1999/xlink" xmlns:sketch="http://www.bohemiancoding.com/sketch/ns">
    <!-- Generator: Sketch 3.2.2 (9983) - http://www.bohemiancoding.com/sketch -->
    <title>Mask</title>
    <desc>Created with Sketch.</desc>
    <defs></defs>
    <g id="outlined" stroke="none" stroke-width="1" fill="none" fill-rule="evenodd" sketch:type="MSPage">
        <g id="Activities_sliced" sketch:type="MSLayerGroup" transform="translate(-720.000000, -120.000000)"></g>
        <g id="Activities" sketch:type="MSLayerGroup" transform="translate(-734.000000, -121.000000)" stroke="#535353" stroke-width="2" stroke-linecap="round" stroke-linejoin="round">
            <g id="Mask" transform="translate(736.000000, 122.000000)" sketch:type="MSShapeGroup">
                <g id="Group" transform="translate(36.500000, 24.500000) rotate(-345.000000) translate(-36.500000, -24.500000) translate(18.000000, 5.000000)">
                    <path d="M32.3283288,0.978958487 C34.6592759,4.96358394 36.0449386,9.9514376 36.0449386,15.3642603 C36.0449386,28.4179189 18.0449386,39 18.0449386,39 C18.0449386,39 0.0449385626,28.4179189 0.0449385626,15.3642603 C0.0449385626,9.49845861 1.67222743,4.13173036 4.36635562,-1.52322599e-13 C7.48481136,4.51799854 12.7462975,7.48568046 18.7116052,7.48568046 C24.2345484,7.48568046 29.1541851,4.94182282 32.3283288,0.978958487 Z" id="Oval-828"></path>
                    <path d="M23.4995876,14.8446583 C23.4995876,14.8446583 25.5821746,11.537259 29.6592497,11.2378154" id="Path-1963"></path>
                    <path d="M7,14.8446583 C7,14.8446583 9.08258698,11.537259 13.1596621,11.2378154" id="Path-1963" transform="translate(10.079831, 13.041237) scale(-1, 1) translate(-10.079831, -13.041237) "></path>
                    <path d="M11.9739263,26.0548204 C13.1930984,27.8179495 15.435501,29 18,29 C20.5481197,29 22.7782441,27.8330007 24.0025882,26.0885323" id="Oval-830"></path>
                </g>
                <g id="Group" transform="translate(13.583401, 43.060536) rotate(-30.000000) translate(-13.583401, -43.060536) translate(4.424907, 33.406989)">
                    <path d="M16.0042592,0.484637032 C17.1582032,2.45724065 17.8441806,4.92649611 17.8441806,7.6061341 C17.8441806,14.0683962 8.9332138,19.3070947 8.9332138,19.3070947 C8.9332138,19.3070947 0.0222470022,14.0683962 0.0222470022,7.6061341 C0.0222470022,4.70224718 0.827842394,2.04542845 2.16158055,-7.66053887e-14 C3.70538364,2.23665194 6.3101019,3.70581389 9.2632496,3.70581389 C11.9974031,3.70581389 14.4328875,2.44646773 16.0042592,0.484637032 Z" id="Oval-828"></path>
                    <path d="M11.633558,7.3489032 C11.633558,7.3489032 12.6645505,5.71156289 14.6829216,5.56332224" id="Path-1963"></path>
                    <path d="M3.46537598,7.3489032 C3.46537598,7.3489032 4.49636839,5.71156289 6.51473956,5.56332224" id="Path-1963" transform="translate(4.990058, 6.456113) scale(-1, 1) translate(-4.990058, -6.456113) "></path>
                    <path d="M5.92773663,12.8985355 C6.53129231,13.7713791 7.64140203,14.3565576 8.91096679,14.3565576 C10.1724229,14.3565576 11.2764543,13.7788303 11.8825704,12.9152247" id="Oval-830"></path>
                </g>
            </g>
        </g>
    </g>
</svg>