<?xml version="1.0" encoding="UTF-8" standalone="no"?>
<svg width="60px" height="60px" viewBox="0 0 60 60" version="1.1" xmlns="http://www.w3.org/2000/svg" xmlns:xlink="http://www.w3.org/1999/xlink" xmlns:sketch="http://www.bohemiancoding.com/sketch/ns">
    <!-- Generator: Sketch 3.2.2 (9983) - http://www.bohemiancoding.com/sketch -->
    <title>PCgames</title>
    <desc>Created with Sketch.</desc>
    <defs></defs>
    <g id="outlined" stroke="none" stroke-width="1" fill="none" fill-rule="evenodd" sketch:type="MSPage">
        <g id="Activities_sliced" sketch:type="MSLayerGroup" transform="translate(-120.000000, -840.000000)"></g>
        <g id="Activities" sketch:type="MSLayerGroup" transform="translate(-134.000000, -841.000000)" stroke="#535353" stroke-width="2" stroke-linejoin="round">
            <g id="PCgames" transform="translate(138.000000, 843.000000)" sketch:type="MSShapeGroup">
                <path d="M24,34 C24,23.5065898 18.8512746,15 12.5,15 C6.14872538,15 1,23.5065898 1,34 L24,34 Z" id="Oval-999" stroke-linecap="round"></path>
                <path d="M54,19 C54,8.50658975 48.8512746,0 42.5,0 C36.1487254,0 31,8.50658975 31,19 L54,19 Z" id="Oval-999" stroke-linecap="round"></path>
                <path d="M8.5,34.2303091 L0.886846653,41.8434624 L7.87108762,48.8277034" id="Path-2379" stroke-linecap="round"></path>
                <path d="M38,19.4026057 L30.3868467,27.015759 L37.3710876,34" id="Path-2379" stroke-linecap="round"></path>
                <path d="M24.5,34.2303091 L16.8868467,41.8434624 L23.8710876,48.8277034" id="Path-2379" stroke-linecap="round" transform="translate(20.693423, 41.529006) scale(-1, 1) translate(-20.693423, -41.529006) "></path>
                <path d="M54,19.4026057 L46.3868467,27.015759 L53.3710876,34" id="Path-2379" stroke-linecap="round" transform="translate(50.193423, 26.701303) scale(-1, 1) translate(-50.193423, -26.701303) "></path>
                <circle id="Oval-999" stroke-linecap="round" cx="8.28774495" cy="25.1722966" r="2"></circle>
                <circle id="Oval-999" stroke-linecap="round" cx="37.7877449" cy="10.3445933" r="2"></circle>
                <circle id="Oval-1000" stroke-linecap="round" cx="17.2877449" cy="25.1722966" r="2"></circle>
                <circle id="Oval-1000" stroke-linecap="round" cx="46.7877449" cy="10.3445933" r="2"></circle>
                <path d="M42,23.9843858 L42,56.0142822" id="Line" stroke-linecap="square" stroke-dasharray="4"></path>
            </g>
        </g>
    </g>
</svg>