<?xml version="1.0" encoding="UTF-8" standalone="no"?>
<svg width="60px" height="60px" viewBox="0 0 60 60" version="1.1" xmlns="http://www.w3.org/2000/svg" xmlns:xlink="http://www.w3.org/1999/xlink" xmlns:sketch="http://www.bohemiancoding.com/sketch/ns">
    <!-- Generator: Sketch 3.2.2 (9983) - http://www.bohemiancoding.com/sketch -->
    <title>Singing</title>
    <desc>Created with Sketch.</desc>
    <defs></defs>
    <g id="outlined" stroke="none" stroke-width="1" fill="none" fill-rule="evenodd" sketch:type="MSPage">
        <g id="Activities_sliced" sketch:type="MSLayerGroup" transform="translate(-480.000000, -720.000000)"></g>
        <g id="Activities" sketch:type="MSLayerGroup" transform="translate(-494.000000, -721.000000)" stroke="#535353" stroke-width="2" stroke-linejoin="round">
            <g id="Singing" transform="translate(491.000000, 720.000000)" sketch:type="MSShapeGroup">
                <g id="Group" transform="translate(34.500000, 30.726716) rotate(-307.000000) translate(-34.500000, -30.726716) translate(21.000000, -1.773284)">
                    <path d="M11.8989827,14.3861485 C13.1955328,12.9038786 14,10.8379514 14,8.55281517 C14,4.04248972 10.8659932,0.386148508 7,0.386148508 C3.13400675,0.386148508 0,4.04248972 0,8.55281517 C0,10.8379514 0.804467211,12.9038786 2.10101726,14.3861485 L11.8989827,14.3861485 Z" id="Oval-975" stroke-linecap="round"></path>
                    <rect id="Rectangle-1189" stroke-linecap="round" x="3" y="14.3861485" width="8" height="4"></rect>
                    <path d="M3,18.3861485 L11,18.3861485 L10,44.3861485 L4,44.3861485 L3,18.3861485 Z" id="Rectangle-1189" stroke-linecap="round"></path>
                    <rect id="Rectangle-1191" stroke-linecap="round" x="5" y="44.3861485" width="4" height="4"></rect>
                    <rect id="Rectangle-1192" stroke-linecap="round" x="4" y="4.38614851" width="2" height="2"></rect>
                    <rect id="Rectangle-1193" stroke-linecap="round" x="8" y="4.38614851" width="2" height="2"></rect>
                    <rect id="Rectangle-1194" stroke-linecap="round" x="6" y="8.38614851" width="2" height="2"></rect>
                    <path d="M7,48.3861485 L7,58.3861485" id="Line" stroke-linecap="square"></path>
                    <path d="M7,59.3861485 C7,62.1475723 9.23857625,64.3861485 12,64.3861485 C14.7614237,64.3861485 17,62.1475723 17,59.3861485" id="Oval-976" stroke-linecap="round"></path>
                    <path d="M17,54.3861485 C17,57.1475723 19.2385763,59.3861485 22,59.3861485 C24.7614237,59.3861485 27,57.1475723 27,54.3861485" id="Oval-976" stroke-linecap="round" transform="translate(22.000000, 56.886149) rotate(-180.000000) translate(-22.000000, -56.886149) "></path>
                </g>
                <ellipse id="Oval-976" stroke-linecap="round" cx="39" cy="46.5" rx="4" ry="2.5"></ellipse>
                <path d="M43,46 L43,33.9584054" id="Line" stroke-linecap="round"></path>
                <ellipse id="Oval-977" stroke-linecap="round" cx="50" cy="49.5" rx="4" ry="2.5"></ellipse>
                <path d="M54,49 L54,36.9584054 L43.1609018,33.9312652" id="Line-273" stroke-linecap="round"></path>
            </g>
        </g>
    </g>
</svg>