<?xml version="1.0" encoding="UTF-8" standalone="no"?>
<svg width="60px" height="60px" viewBox="0 0 60 60" version="1.1" xmlns="http://www.w3.org/2000/svg" xmlns:xlink="http://www.w3.org/1999/xlink" xmlns:sketch="http://www.bohemiancoding.com/sketch/ns">
    <!-- Generator: Sketch 3.2.2 (9983) - http://www.bohemiancoding.com/sketch -->
    <title>Sitting</title>
    <desc>Created with Sketch.</desc>
    <defs></defs>
    <g id="outlined" stroke="none" stroke-width="1" fill="none" fill-rule="evenodd" sketch:type="MSPage">
        <g id="Activities_sliced" sketch:type="MSLayerGroup" transform="translate(-600.000000, -600.000000)"></g>
        <g id="Activities" sketch:type="MSLayerGroup" transform="translate(-614.000000, -601.000000)" stroke="#535353" stroke-width="2" stroke-linejoin="round">
            <g id="Sitting" transform="translate(616.000000, 605.000000)" sketch:type="MSShapeGroup">
                <rect id="Rectangle-1131" stroke-linecap="round" x="6" y="37" width="45" height="4"></rect>
                <rect id="Rectangle-1132" stroke-linecap="round" x="8" y="28" width="41" height="4"></rect>
                <path d="M49,37 L49,26" id="Line" stroke-linecap="square"></path>
                <path d="M49,46 L49,41" id="Line" stroke-linecap="square"></path>
                <path d="M8,46 L8,41" id="Line" stroke-linecap="square"></path>
                <path d="M8,37 L8,26" id="Line" stroke-linecap="square"></path>
                <circle id="Oval-951" stroke-linecap="round" cx="50" cy="5" r="5"></circle>
                <path d="M44,10 L42,12" id="Line" stroke-linecap="round"></path>
                <path d="M42,5 L40,5" id="Line" stroke-linecap="round"></path>
                <path d="M50.0342903,12.9644913 L50.0342903,14.9644913" id="Line" stroke-linecap="round"></path>
                <path d="M55.2888343,48.4071233 C47.8651132,46.2781669 38.3604523,45 28,45 C17.7640454,45 8.36343836,46.2476329 0.979689338,48.330744" id="Oval-946" stroke-linecap="round"></path>
            </g>
        </g>
    </g>
</svg>