<?xml version="1.0" encoding="UTF-8" standalone="no"?>
<svg width="60px" height="60px" viewBox="0 0 60 60" version="1.1" xmlns="http://www.w3.org/2000/svg" xmlns:xlink="http://www.w3.org/1999/xlink" xmlns:sketch="http://www.bohemiancoding.com/sketch/ns">
    <!-- Generator: Sketch 3.2.2 (9983) - http://www.bohemiancoding.com/sketch -->
    <title>Typemachine</title>
    <desc>Created with Sketch.</desc>
    <defs></defs>
    <g id="outlined" stroke="none" stroke-width="1" fill="none" fill-rule="evenodd" sketch:type="MSPage">
        <g id="Activities_sliced" sketch:type="MSLayerGroup" transform="translate(-120.000000, -600.000000)"></g>
        <g id="Activities" sketch:type="MSLayerGroup" transform="translate(-134.000000, -601.000000)" stroke="#535353" stroke-width="2" stroke-linejoin="round">
            <g id="Typemachine" transform="translate(137.000000, 607.000000)" sketch:type="MSShapeGroup">
                <rect id="Rectangle-1123" stroke-linecap="round" x="6" y="17" width="44" height="11"></rect>
                <rect id="Rectangle-1124" stroke-linecap="round" x="16" y="0" width="24" height="19"></rect>
                <path d="M15,31 L41,31 L51,43 L5,43 L15,31 Z" id="Rectangle-1125" stroke-linecap="round"></path>
                <path d="M4.07153143,23 L3.10862447e-15,23 L3.69762607e-15,33 L4.53365066,33" id="Path-2218" stroke-linecap="round"></path>
                <path d="M5,30 L5,36" id="Line" stroke-linecap="square"></path>
                <path d="M35,22 L44.9999999,22" id="Path-2220" stroke-linecap="round"></path>
                <path d="M20,5 L32,5" id="Line" stroke-linecap="square"></path>
                <path d="M20,9 L35,9" id="Line" stroke-linecap="square"></path>
                <path d="M23,40 L32,40" id="Line" stroke-linecap="square"></path>
                <path d="M35,40 L37,40" id="Line" stroke-linecap="square"></path>
                <path d="M18,40 L20,40" id="Line" stroke-linecap="square"></path>
                <path d="M15,37 L16,37" id="Line" stroke-linecap="square"></path>
                <path d="M17,34 L18,34" id="Line" stroke-linecap="square"></path>
                <path d="M25,34 L26,34" id="Line" stroke-linecap="square"></path>
                <path d="M33,34 L34,34" id="Line" stroke-linecap="square"></path>
                <path d="M21,34 L22,34" id="Line" stroke-linecap="square"></path>
                <path d="M29,34 L30,34" id="Line" stroke-linecap="square"></path>
                <path d="M37,34 L38,34" id="Line" stroke-linecap="square"></path>
                <path d="M19,37 L20,37" id="Line" stroke-linecap="square"></path>
                <path d="M23,37 L24,37" id="Line-266" stroke-linecap="square"></path>
                <path d="M27,37 L28,37" id="Line-265" stroke-linecap="square"></path>
                <path d="M31,37 L32,37" id="Line-268" stroke-linecap="square"></path>
                <path d="M35,37 L36,37" id="Line-267" stroke-linecap="square"></path>
                <path d="M39,37 L41,37" id="Line-270" stroke-linecap="square"></path>
            </g>
        </g>
    </g>
</svg>