<?xml version="1.0" encoding="UTF-8" standalone="no"?>
<svg width="60px" height="60px" viewBox="0 0 60 60" version="1.1" xmlns="http://www.w3.org/2000/svg" xmlns:xlink="http://www.w3.org/1999/xlink" xmlns:sketch="http://www.bohemiancoding.com/sketch/ns">
    <!-- Generator: Sketch 3.2.2 (9983) - http://www.bohemiancoding.com/sketch -->
    <title>Whistle</title>
    <desc>Created with Sketch.</desc>
    <defs></defs>
    <g id="outlined" stroke="none" stroke-width="1" fill="none" fill-rule="evenodd" sketch:type="MSPage">
        <g id="Activities_sliced" sketch:type="MSLayerGroup" transform="translate(0.000000, -480.000000)"></g>
        <g id="Activities" sketch:type="MSLayerGroup" transform="translate(-14.000000, -481.000000)" stroke="#535353" stroke-width="2" stroke-linejoin="round">
            <g id="Whistle" transform="translate(16.000000, 497.000000)" sketch:type="MSShapeGroup">
                <path d="M41,13 C47.627417,13 53,18.372583 53,25 C53,31.627417 47.627417,37 41,37 C34.372583,37 29,31.627417 29,25 C29,24.6632468 29.0138713,24.3297334 29.0410738,24 L14,24 L14,13 L41,13 Z" id="Oval-912" stroke-linecap="round"></path>
                <path d="M14,15 L14,4 L41,4 C47.627417,4 53,9.372583 53,16 L53,25.808171" id="Oval-912" stroke-linecap="round"></path>
                <path d="M24,13 L24,5" id="Line" stroke-linecap="square"></path>
                <path d="M28,13 L28,5" id="Line" stroke-linecap="square"></path>
                <path d="M32,13 L32,5" id="Line" stroke-linecap="square"></path>
                <circle id="Oval-913" stroke-linecap="round" cx="41" cy="27" r="5"></circle>
                <path d="M8,12 L0,12" id="Line" stroke-linecap="round"></path>
                <path d="M8,6 L2.47731948,0.477319479" id="Line" stroke-linecap="round"></path>
                <path d="M8,24 L2.47731948,18.4773195" id="Line" stroke-linecap="round" transform="translate(5.000000, 21.000000) scale(1, -1) translate(-5.000000, -21.000000) "></path>
            </g>
        </g>
    </g>
</svg>