<?xml version="1.0" encoding="UTF-8" standalone="no"?>
<svg width="60px" height="60px" viewBox="0 0 60 60" version="1.1" xmlns="http://www.w3.org/2000/svg" xmlns:xlink="http://www.w3.org/1999/xlink" xmlns:sketch="http://www.bohemiancoding.com/sketch/ns">
    <!-- Generator: Sketch 3.2.2 (9983) - http://www.bohemiancoding.com/sketch -->
    <title>Woofer</title>
    <desc>Created with Sketch.</desc>
    <defs></defs>
    <g id="outlined" stroke="none" stroke-width="1" fill="none" fill-rule="evenodd" sketch:type="MSPage">
        <g id="Activities_sliced" sketch:type="MSLayerGroup" transform="translate(-360.000000, -720.000000)"></g>
        <g id="Activities" sketch:type="MSLayerGroup" transform="translate(-374.000000, -721.000000)" stroke="#535353" stroke-width="2" stroke-linecap="round" stroke-linejoin="round">
            <g id="Woofer" transform="translate(383.000000, 723.000000)" sketch:type="MSShapeGroup">
                <rect id="Rectangle-1181" x="3" y="0" width="38" height="53"></rect>
                <circle id="Oval-969" cx="22" cy="34" r="10"></circle>
                <circle id="Oval-970" cx="22" cy="34" r="4"></circle>
                <circle id="Oval-970" cx="31" cy="10" r="5"></circle>
                <circle id="Oval-971" cx="31" cy="10" r="2"></circle>
                <circle id="Oval-970" cx="13" cy="10" r="5"></circle>
                <circle id="Oval-972" cx="13" cy="10" r="2"></circle>
                <path d="M20,21.0048815 C20,19.897616 20.8877296,19 22,19 C23.1045695,19 24,19.8938998 24,21.0048815 L24,24 L20,24 L20,21.0048815 Z M34.9951185,32 C36.102384,32 37,32.8877296 37,34 C37,35.1045695 36.1061002,36 34.9951185,36 L32,36 L32,32 L34.9951185,32 Z M24,46.9951185 C24,48.102384 23.1122704,49 22,49 C20.8954305,49 20,48.1061002 20,46.9951185 L20,44 L24,44 L24,46.9951185 Z M9.0048815,36 C7.89761602,36 7,35.1122704 7,34 C7,32.8954305 7.8938998,32 9.0048815,32 L12,32 L12,36 L9.0048815,36 Z" id="Rectangle-1182" transform="translate(22.000000, 34.000000) rotate(-45.000000) translate(-22.000000, -34.000000) "></path>
                <rect id="Rectangle-1186" x="7" y="52" width="6" height="5"></rect>
                <rect id="Rectangle-1187" x="31" y="52" width="6" height="5"></rect>
            </g>
        </g>
    </g>
</svg>