<?xml version="1.0" encoding="UTF-8" standalone="no"?>
<svg width="60px" height="60px" viewBox="0 0 60 60" version="1.1" xmlns="http://www.w3.org/2000/svg" xmlns:xlink="http://www.w3.org/1999/xlink" xmlns:sketch="http://www.bohemiancoding.com/sketch/ns">
    <!-- Generator: Sketch 3.2.2 (9983) - http://www.bohemiancoding.com/sketch -->
    <title>Bonsai</title>
    <desc>Created with Sketch.</desc>
    <defs></defs>
    <g id="filled" stroke="none" stroke-width="1" fill="none" fill-rule="evenodd" sketch:type="MSPage">
        <g id="Activities_sliced" sketch:type="MSLayerGroup" transform="translate(0.000000, -960.000000)"></g>
        <g id="Activities" sketch:type="MSLayerGroup" transform="translate(-14.000000, -961.000000)" stroke="#535353" stroke-width="2" stroke-linejoin="round">
            <g id="Bonsai" transform="translate(17.000000, 968.000000)" sketch:type="MSShapeGroup">
                <path d="M11,33 L47,33 L44,45 L14,45 L11,33 Z" id="Rectangle-1238" stroke-linecap="round" fill="#D8D8D8"></path>
                <path d="M28.0585938,32.51875 C28.0585938,32.51875 34.5820312,27.4390623 31.3203125,21.984375 C28.0585938,16.5296877 23.6546875,19.2671875 23.6546875,19.2671875" id="Path-2416" stroke-linecap="round"></path>
                <path d="M18.1985103,19.8093428 C17.2614884,21.6982162 15.285749,23 13,23 C11.6336325,23 10.378043,22.5348245 9.38888889,21.7571378 L9.38888889,21.7571378 C8.39973482,22.5348245 7.14414525,23 5.77777778,23 C2.58679922,23 0,20.4629469 0,17.3333333 C0,14.2037198 2.58679922,11.6666667 5.77777778,11.6666667 C6.27756503,11.6666667 6.7625309,11.7289042 7.22505771,11.845908 L7.22505771,11.845908 C7.22317204,11.7863876 7.22222222,11.7266359 7.22222222,11.6666667 C7.22222222,8.53705308 9.80902145,6 13,6 C15.285749,6 17.2614884,7.3017838 18.1985103,9.1906572 C18.8283192,8.95964137 19.5102311,8.83333333 20.2222222,8.83333333 C23.4132008,8.83333333 26,11.3703864 26,14.5 C26,17.6296136 23.4132008,20.1666667 20.2222222,20.1666667 C19.5102311,20.1666667 18.8283192,20.0403586 18.1985103,19.8093428 Z" id="Oval-1013" stroke-linecap="round" fill="#D8D8D8"></path>
                <path d="M50.6987968,16.3724 C49.9419714,17.9279428 48.3461819,19 46.5,19 C45.3963955,19 44.3822655,18.6169143 43.5833333,17.9764664 L43.5833333,17.9764664 C42.7844012,18.6169143 41.7702712,19 40.6666667,19 C38.0893378,19 36,16.9106622 36,14.3333333 C36,11.7560045 38.0893378,9.66666667 40.6666667,9.66666667 C41.070341,9.66666667 41.4620442,9.71792108 41.8356235,9.81427715 L41.8356235,9.81427715 C41.8341005,9.76526034 41.8333333,9.71605309 41.8333333,9.66666667 C41.8333333,7.08933783 43.9226712,5 46.5,5 C48.3461819,5 49.9419714,6.07205725 50.6987968,7.62760005 C51.2074886,7.43735171 51.7582636,7.33333333 52.3333333,7.33333333 C54.9106622,7.33333333 57,9.42267117 57,12 C57,14.5773288 54.9106622,16.6666667 52.3333333,16.6666667 C51.7582636,16.6666667 51.2074886,16.5626483 50.6987968,16.3724 Z" id="Oval-1013" stroke-linecap="round" fill="#D8D8D8" transform="translate(46.500000, 12.000000) rotate(38.000000) translate(-46.500000, -12.000000) "></path>
                <path d="M31.9507813,22.6914062 C31.9507813,22.6914062 37.1984373,17.546875 41.8984375,17.546875" id="Path-2417" stroke-linecap="round"></path>
                <path d="M12,48 L46,48" id="Line" stroke-linecap="square"></path>
            </g>
        </g>
    </g>
</svg>