<?xml version="1.0" encoding="UTF-8" standalone="no"?>
<svg width="60px" height="60px" viewBox="0 0 60 60" version="1.1" xmlns="http://www.w3.org/2000/svg" xmlns:xlink="http://www.w3.org/1999/xlink" xmlns:sketch="http://www.bohemiancoding.com/sketch/ns">
    <!-- Generator: Sketch 3.2.2 (9983) - http://www.bohemiancoding.com/sketch -->
    <title>Circusbike</title>
    <desc>Created with Sketch.</desc>
    <defs></defs>
    <g id="filled" stroke="none" stroke-width="1" fill="none" fill-rule="evenodd" sketch:type="MSPage">
        <g id="Activities_sliced" sketch:type="MSLayerGroup" transform="translate(-360.000000, -600.000000)"></g>
        <g id="Activities" sketch:type="MSLayerGroup" transform="translate(-374.000000, -601.000000)" stroke="#535353" stroke-width="2" stroke-linejoin="round">
            <g id="Circusbike" transform="translate(377.000000, 607.000000)" sketch:type="MSShapeGroup">
                <path d="M14,46 C21.7319865,46 28,39.7319865 28,32 C28,24.2680135 21.7319865,18 14,18 C6.2680135,18 0,24.2680135 0,32 C0,39.7319865 6.2680135,46 14,46 Z M14,35 C15.6568542,35 17,33.6568542 17,32 C17,30.3431458 15.6568542,29 14,29 C12.3431458,29 11,30.3431458 11,32 C11,33.6568542 12.3431458,35 14,35 Z" id="Oval-941" stroke-linecap="round" fill="#D8D8D8"></path>
                <circle id="Oval-941" stroke-linecap="round" fill="#D8D8D8" cx="47.5" cy="39.5" r="6.5"></circle>
                <path id="Path-2245" stroke-linecap="round" d=""></path>
                <path d="M22,0 C17.581722,0 14,3.581722 14,8" id="Oval-943" stroke-linecap="round"></path>
                <path d="M14,8 L14,30.0277557" id="Line" stroke-linecap="square"></path>
                <path d="M14.3398091,8.17178356 L47.7837337,39.0615276" id="Path-2248" stroke-linecap="round"></path>
                <path d="M30.6996174,22.859316 L37.7994272,11.6213997" id="Path-2249" stroke-linecap="round"></path>
                <path d="M34.0230713,11.012207 C34.4928174,11.011773 41.9855346,11.012207 41.9855346,11.012207 L44.1231713,9" id="Path-2250" stroke-linecap="round"></path>
            </g>
        </g>
    </g>
</svg>