<?xml version="1.0" encoding="UTF-8" standalone="no"?>
<svg width="60px" height="60px" viewBox="0 0 60 60" version="1.1" xmlns="http://www.w3.org/2000/svg" xmlns:xlink="http://www.w3.org/1999/xlink" xmlns:sketch="http://www.bohemiancoding.com/sketch/ns">
    <!-- Generator: Sketch 3.2.2 (9983) - http://www.bohemiancoding.com/sketch -->
    <title>Duel</title>
    <desc>Created with Sketch.</desc>
    <defs></defs>
    <g id="filled" stroke="none" stroke-width="1" fill="none" fill-rule="evenodd" sketch:type="MSPage">
        <g id="Activities_sliced" sketch:type="MSLayerGroup" transform="translate(-840.000000, -480.000000)"></g>
        <g id="Activities" sketch:type="MSLayerGroup" transform="translate(-854.000000, -481.000000)" stroke="#535353" stroke-width="2" stroke-linecap="round" stroke-linejoin="round">
            <g id="Duel" transform="translate(853.000000, 480.000000)" sketch:type="MSShapeGroup">
                <g id="Rectangle-1110-+-Oval-920-+-Line" transform="translate(31.236444, 30.698485) rotate(-315.000000) translate(-31.236444, -30.698485) translate(20.736444, -1.801515)">
                    <rect id="Rectangle-1110" fill="#D8D8D8" x="9" y="43" width="4" height="22"></rect>
                    <path d="M21,53 C21,47.4771525 16.5228475,43 11,43 C5.4771525,43 1,47.4771525 1,53" id="Oval-920"></path>
                    <path d="M11,43 L11,0.635840893" id="Line"></path>
                </g>
                <g id="Rectangle-1110-+-Oval-920-+-Line-2" transform="translate(31.589997, 31.052038) rotate(-45.000000) translate(-31.589997, -31.052038) translate(21.589997, -1.447962)">
                    <rect id="Rectangle-1110" fill="#D8D8D8" x="8" y="43" width="4" height="22"></rect>
                    <path d="M20,53 C20,47.4771525 15.5228475,43 10,43 C4.4771525,43 1.65201186e-13,47.4771525 1.65201186e-13,53" id="Oval-920"></path>
                    <path d="M10,43 L10,0.635840893" id="Line"></path>
                </g>
            </g>
        </g>
    </g>
</svg>