<?xml version="1.0" encoding="UTF-8" standalone="no"?>
<svg width="60px" height="60px" viewBox="0 0 60 60" version="1.1" xmlns="http://www.w3.org/2000/svg" xmlns:xlink="http://www.w3.org/1999/xlink" xmlns:sketch="http://www.bohemiancoding.com/sketch/ns">
    <!-- Generator: Sketch 3.2.2 (9983) - http://www.bohemiancoding.com/sketch -->
    <title>Skate</title>
    <desc>Created with Sketch.</desc>
    <defs></defs>
    <g id="filled" stroke="none" stroke-width="1" fill="none" fill-rule="evenodd" sketch:type="MSPage">
        <g id="Activities_sliced" sketch:type="MSLayerGroup" transform="translate(-240.000000, -600.000000)"></g>
        <g id="Activities" sketch:type="MSLayerGroup" transform="translate(-254.000000, -601.000000)" stroke="#535353" stroke-width="2" stroke-linejoin="round">
            <g id="Skate" transform="translate(249.000000, 597.000000)" sketch:type="MSShapeGroup">
                <g id="Group" transform="translate(34.500000, 34.000000) rotate(-45.000000) translate(-34.500000, -34.000000) translate(20.000000, 1.000000)">
                    <rect id="Rectangle-1126" stroke-linecap="round" transform="translate(14.497399, 33.382506) rotate(-1.000000) translate(-14.497399, -33.382506) " x="1.49739875" y="0.996251207" width="26" height="64.7725095" rx="23"></rect>
                    <rect id="Rectangle-1127" stroke-linecap="round" fill="#D8D8D8" x="18" y="14" width="5" height="8"></rect>
                    <rect id="Rectangle-1127" stroke-linecap="round" fill="#D8D8D8" x="6" y="14" width="5" height="8"></rect>
                    <path d="M12,18 L17,18" id="Line" stroke-linecap="square"></path>
                    <rect id="Rectangle-1129" stroke-linecap="round" fill="#D8D8D8" x="18" y="46" width="5" height="8"></rect>
                    <rect id="Rectangle-1128" stroke-linecap="round" fill="#D8D8D8" x="6" y="46" width="5" height="8"></rect>
                    <path d="M12,50 L17,50" id="Line-269" stroke-linecap="square"></path>
                </g>
                <path d="M24.0070814,46.5035407 L34.3279622,56.8244216" id="Path-2241" stroke-linecap="round"></path>
                <path d="M12,40.0070814 L24.9929186,53" id="Path-2241" stroke-linecap="round"></path>
                <path d="M36,11.0070814 L43.5128803,18.5199617" id="Path-2241" stroke-linecap="round"></path>
                <path d="M46,16 L53.5128803,23.5128803" id="Path-2241" stroke-linecap="round"></path>
            </g>
        </g>
    </g>
</svg>