<?xml version="1.0" encoding="UTF-8" standalone="no"?>
<svg width="60px" height="60px" viewBox="0 0 60 60" version="1.1" xmlns="http://www.w3.org/2000/svg" xmlns:xlink="http://www.w3.org/1999/xlink" xmlns:sketch="http://www.bohemiancoding.com/sketch/ns">
    <!-- Generator: Sketch 3.2.2 (9983) - http://www.bohemiancoding.com/sketch -->
    <title>Stylo</title>
    <desc>Created with Sketch.</desc>
    <defs></defs>
    <g id="filled" stroke="none" stroke-width="1" fill="none" fill-rule="evenodd" sketch:type="MSPage">
        <g id="Activities_sliced" sketch:type="MSLayerGroup" transform="translate(-600.000000, -120.000000)"></g>
        <g id="Activities" sketch:type="MSLayerGroup" transform="translate(-614.000000, -121.000000)" stroke="#535353" stroke-width="2" stroke-linecap="round" stroke-linejoin="round">
            <g id="Stylo" transform="translate(635.000000, 123.000000)" sketch:type="MSShapeGroup">
                <path d="M0.675514249,11.0287234 L7.93095129,21.7488037 L5.21594135,25.8691312 L11,25.8691312 L11,0.567933876 L0.675514249,11.0287234 Z" id="Path-1961"></path>
                <path d="M13,42 L20,42 L20,27.3281323 C20,26.0378355 18.9547047,25 17.6652676,25 L4.33473236,25 C3.0455586,25 2,26.0423403 2,27.3281323 L2,42 L9,42 L9,34 L13,34 L13,42 Z" id="Rectangle-992"></path>
                <path d="M13,57.1899882 L20,57.1899882 L20,48.6899882 C20,44.00512 16.1947546,40.1899882 11.5007466,40.1899882 L10.4992534,40.1899882 C5.80633448,40.1899882 2,43.9955678 2,48.6899882 L2,57.1899882 L9,57.1899882 L9,49.1899882 L13,49.1899882 L13,57.1899882 Z" id="Rectangle-992" transform="translate(11.000000, 48.689988) rotate(-180.000000) translate(-11.000000, -48.689988) "></path>
                <path d="M11,11.0287234 L18.255437,21.7488037 L15.5404271,25.8691312 L21.3244858,25.8691312 L21.3244858,0.567933876 L11,11.0287234 Z" id="Path-1961" transform="translate(16.162243, 13.218533) scale(-1, 1) translate(-16.162243, -13.218533) "></path>
            </g>
        </g>
    </g>
</svg>