<?xml version="1.0" encoding="UTF-8" standalone="no"?>
<svg width="60px" height="60px" viewBox="0 0 60 60" version="1.1" xmlns="http://www.w3.org/2000/svg" xmlns:xlink="http://www.w3.org/1999/xlink" xmlns:sketch="http://www.bohemiancoding.com/sketch/ns">
    <!-- Generator: Sketch 3.2.2 (9983) - http://www.bohemiancoding.com/sketch -->
    <title>Backback</title>
    <desc>Created with Sketch.</desc>
    <defs></defs>
    <g id="outlined" stroke="none" stroke-width="1" fill="none" fill-rule="evenodd" sketch:type="MSPage">
        <g id="Activities_sliced" sketch:type="MSLayerGroup" transform="translate(-600.000000, -240.000000)"></g>
        <g id="Activities" sketch:type="MSLayerGroup" transform="translate(-614.000000, -241.000000)" stroke="#535353" stroke-width="2" stroke-linejoin="round">
            <g id="Backpack" transform="translate(629.000000, 245.000000)" sketch:type="MSShapeGroup">
                <rect id="Rectangle-1045" stroke-linecap="round" x="0" y="7" width="31" height="42"></rect>
                <path d="M1.5,8 C1.5,15.7319865 7.7680135,22 15.5,22 C23.2319865,22 29.5,15.7319865 29.5,8 L1.5,8 Z" id="Oval-854" stroke-linecap="round"></path>
                <path d="M7.5,0 C7.5,4.418278 11.081722,8 15.5,8 C19.918278,8 23.5,4.418278 23.5,0 L7.5,0 Z" id="Oval-854" stroke-linecap="round" transform="translate(15.500000, 4.000000) scale(1, -1) translate(-15.500000, -4.000000) "></path>
                <rect id="Rectangle-1046" stroke-linecap="round" x="12" y="21" width="7" height="8"></rect>
                <path d="M10,48 L10,53" id="Line" stroke-linecap="square"></path>
                <path d="M21,48 L21,53" id="Line" stroke-linecap="square"></path>
                <rect id="Rectangle-1047" stroke-linecap="round" x="7" y="33" width="17" height="8"></rect>
            </g>
        </g>
    </g>
</svg>