<?xml version="1.0" encoding="UTF-8" standalone="no"?>
<svg width="60px" height="60px" viewBox="0 0 60 60" version="1.1" xmlns="http://www.w3.org/2000/svg" xmlns:xlink="http://www.w3.org/1999/xlink" xmlns:sketch="http://www.bohemiancoding.com/sketch/ns">
    <!-- Generator: Sketch 3.2.2 (9983) - http://www.bohemiancoding.com/sketch -->
    <title>Cards</title>
    <desc>Created with Sketch.</desc>
    <defs></defs>
    <g id="outlined" stroke="none" stroke-width="1" fill="none" fill-rule="evenodd" sketch:type="MSPage">
        <g id="Activities_sliced" sketch:type="MSLayerGroup" transform="translate(-360.000000, -120.000000)"></g>
        <g id="Activities" sketch:type="MSLayerGroup" transform="translate(-374.000000, -121.000000)" stroke="#535353" stroke-width="2" stroke-linejoin="round">
            <g id="Cards" transform="translate(387.000000, 124.000000)" sketch:type="MSShapeGroup">
                <rect id="Rectangle-989" stroke-linecap="round" x="0" y="0" width="39" height="54" rx="3"></rect>
                <path d="M4.14586093,11.2300466 L8.20777107,3.76893867 L12.2186345,11.1655665" id="Path-1949" stroke-linecap="round"></path>
                <path d="M6,9 L10,9" id="Line" stroke-linecap="square"></path>
                <g id="Path-1950-+-Line-242" transform="translate(30.500000, 46.500000) rotate(-180.000000) translate(-30.500000, -46.500000) translate(26.000000, 42.000000)">
                    <path d="M0.14586093,8.23004661 L4.20777107,0.76893867 L8.21863445,8.16556649" id="Path-1950" stroke-linecap="round"></path>
                    <path d="M2,6 L6,6" id="Line-242" stroke-linecap="square"></path>
                </g>
                <path d="M13.011397,19.5978014 C10.134787,21.2586129 9.68772917,23.869701 12.0128653,27.8969549 C13.8863603,31.1419435 19.6271606,34.7552242 19.6271606,34.7552242 C19.6271606,34.7552242 25.3679609,31.1419435 27.2414559,27.8969549 C29.566592,23.869701 29.1195342,21.2586129 26.2429242,19.5978014 C24.3153189,18.4848979 21.7859077,18.9791551 19.6271606,20.6381652 C17.4684135,18.9791551 14.9390024,18.4848979 13.011397,19.5978014 Z" id="Oval-827" stroke-linecap="round"></path>
            </g>
        </g>
    </g>
</svg>