<?xml version="1.0" encoding="UTF-8" standalone="no"?>
<svg width="60px" height="60px" viewBox="0 0 60 60" version="1.1" xmlns="http://www.w3.org/2000/svg" xmlns:xlink="http://www.w3.org/1999/xlink" xmlns:sketch="http://www.bohemiancoding.com/sketch/ns">
    <!-- Generator: Sketch 3.2.2 (9983) - http://www.bohemiancoding.com/sketch -->
    <title>Chess</title>
    <desc>Created with Sketch.</desc>
    <defs></defs>
    <g id="outlined" stroke="none" stroke-width="1" fill="none" fill-rule="evenodd" sketch:type="MSPage">
        <g id="Activities_sliced" sketch:type="MSLayerGroup" transform="translate(-840.000000, -240.000000)"></g>
        <g id="Activities" sketch:type="MSLayerGroup" transform="translate(-854.000000, -241.000000)" stroke="#535353" stroke-width="2" stroke-linecap="round" stroke-linejoin="round">
            <g id="Chess" transform="translate(865.000000, 242.000000)" sketch:type="MSShapeGroup">
                <path d="M4.18565655,46 C4.85122617,44.8817877 5.49553669,44.0164536 5.89685237,43.6183701 C7.29411005,42.2323659 6.18512236,39.6513597 6.18512259,35.7507142 C6.18512283,31.8500687 9.73754387,27.5528446 16.0333153,21.3139986 C11.4471979,19.4905412 3.42554876,23.8484667 3.42554876,23.8484667 L0,18.2882573 C0,18.2882573 11.5258173,8.10425212 11.5258172,8.10425213 C11.5258172,8.10425213 16.5803211,7.30218985 23.384414,10.147447 C30.1885069,12.9927041 31.176031,23.8484672 28.0695331,34.1166439 C26.1177244,40.5681261 28.189885,44.1950696 30,46 L4.18565655,46 Z" id="Path-2025"></path>
                <rect id="Rectangle-1051" x="3" y="49" width="28" height="8"></rect>
                <path d="M13.0905099,5.3102234 L13.0905099,0.759203486 C13.0905099,0.759203486 23.6110845,1.41156726 29.6528364,6.30719047 C35.6945882,11.2028137 36.2440708,17.8360968 35.3624551,23.2383011 C34.4808393,28.6405054 31.3510033,35.8670271 31.3510047,39.7156765 C31.3510061,43.5643259 33.7020743,45.8062963 33.7020743,45.8062963" id="Path-2026"></path>
                <path d="M10.281724,14.7478431 L13.6170727,12.9225808" id="Path-2208"></path>
            </g>
        </g>
    </g>
</svg>