<?xml version="1.0" encoding="UTF-8" standalone="no"?>
<svg width="60px" height="60px" viewBox="0 0 60 60" version="1.1" xmlns="http://www.w3.org/2000/svg" xmlns:xlink="http://www.w3.org/1999/xlink" xmlns:sketch="http://www.bohemiancoding.com/sketch/ns">
    <!-- Generator: Sketch 3.2.2 (9983) - http://www.bohemiancoding.com/sketch -->
    <title>Cyclemachine</title>
    <desc>Created with Sketch.</desc>
    <defs></defs>
    <g id="outlined" stroke="none" stroke-width="1" fill="none" fill-rule="evenodd" sketch:type="MSPage">
        <g id="Activities_sliced" sketch:type="MSLayerGroup" transform="translate(-240.000000, -360.000000)"></g>
        <g id="Activities" sketch:type="MSLayerGroup" transform="translate(-254.000000, -361.000000)" stroke="#535353" stroke-width="2" stroke-linejoin="round">
            <g id="Cyclemachine" transform="translate(260.000000, 369.000000)" sketch:type="MSShapeGroup">
                <path d="M35,44 C40.5228475,44 45,39.5228475 45,34 C45,28.4771525 40.5228475,24 35,24 C29.4771525,24 25.628849,33.052804 0.953826904,41.6458015 C0.953826904,44 29.4771525,44 35,44 Z" id="Oval-869" stroke-linecap="round"></path>
                <circle id="Oval-870" stroke-linecap="round" cx="35" cy="34" r="6"></circle>
                <path d="M39.9494526,21.7018635 C39.9494526,21.7018635 51.1945324,11.7844165 47.0954275,12.7753653 C41.7822288,14.0598185 36.7704572,12.7753653 36.7704572,12.7753653" id="Path-2061" stroke-linecap="round"></path>
                <path d="M3,47 L9.08276272,47" id="Line" stroke-linecap="square"></path>
                <path d="M31,47.2981365 L37.0827627,47.2981365" id="Line" stroke-linecap="square"></path>
                <path d="M7.22780462,12.4767204 C7.22780462,12.4767204 -4.04466358,20.2493164 11.3799321,37.2157234" id="Path-2064" stroke-linecap="round"></path>
                <path d="M2.80271564,0.973860891 C2.80271597,0.97408897 3.50424623,7.74732677 3.50424623,7.74732677 L11.0531563,15.8856003" id="Path-2065" stroke-linecap="round"></path>
                <path d="M34.8575736,34.0500911 L27.1824892,39.5251142 L22.8138631,39.5251142" id="Path-2066" stroke-linecap="round"></path>
            </g>
        </g>
    </g>
</svg>