<?xml version="1.0" encoding="UTF-8" standalone="no"?>
<svg width="60px" height="60px" viewBox="0 0 60 60" version="1.1" xmlns="http://www.w3.org/2000/svg" xmlns:xlink="http://www.w3.org/1999/xlink" xmlns:sketch="http://www.bohemiancoding.com/sketch/ns">
    <!-- Generator: Sketch 3.2.2 (9983) - http://www.bohemiancoding.com/sketch -->
    <title>Gardening</title>
    <desc>Created with Sketch.</desc>
    <defs></defs>
    <g id="outlined" stroke="none" stroke-width="1" fill="none" fill-rule="evenodd" sketch:type="MSPage">
        <g id="Activities_sliced" sketch:type="MSLayerGroup"></g>
        <g id="Activities" sketch:type="MSLayerGroup" transform="translate(-14.000000, -1.000000)" stroke="#535353" stroke-width="2" stroke-linejoin="round">
            <g id="Gardening" transform="translate(46.000000, 33.000000) rotate(-315.000000) translate(-46.000000, -33.000000) translate(33.000000, 0.000000)" sketch:type="MSShapeGroup">
                <path d="M4.9744027,58.3726573 C8.3897985,62.4818723 13,65.7216473 13,65.7216473 C13,65.7216473 18.1598264,61.988642 21.7732711,57.4543705 C24.5476878,53.9729396 26,50.0191441 26,46.92 C26,39.784481 20.1797017,36 13,36 C5.82029825,36 0,39.784481 0,46.92 C0,50.2952439 1.90872428,54.6842028 4.9744027,58.3726573 Z" id="Oval-797" stroke-linecap="round"></path>
                <rect id="Rectangle-947" stroke-linecap="round" x="11" y="21" width="4" height="15"></rect>
                <path d="M7,21 L19,21" id="Line" stroke-linecap="square"></path>
                <rect id="Rectangle-948" stroke-linecap="round" x="8" y="0" width="10" height="22"></rect>
                <path d="M8.07217494,37.2787248 L13.0300721,42.982336 L19.0358456,37.2787248" id="Path-1866" stroke-linecap="round"></path>
            </g>
        </g>
    </g>
</svg>