<?xml version="1.0" encoding="UTF-8" standalone="no"?>
<svg width="60px" height="60px" viewBox="0 0 60 60" version="1.1" xmlns="http://www.w3.org/2000/svg" xmlns:xlink="http://www.w3.org/1999/xlink" xmlns:sketch="http://www.bohemiancoding.com/sketch/ns">
    <!-- Generator: Sketch 3.2.2 (9983) - http://www.bohemiancoding.com/sketch -->
    <title>Nintendo</title>
    <desc>Created with Sketch.</desc>
    <defs></defs>
    <g id="outlined" stroke="none" stroke-width="1" fill="none" fill-rule="evenodd" sketch:type="MSPage">
        <g id="Activities_sliced" sketch:type="MSLayerGroup" transform="translate(-600.000000, -360.000000)"></g>
        <g id="Activities" sketch:type="MSLayerGroup" transform="translate(-614.000000, -361.000000)" stroke="#535353" stroke-width="2" stroke-linejoin="round">
            <g id="Nintendo" transform="translate(617.000000, 368.000000)" sketch:type="MSShapeGroup">
                <rect id="Rectangle-1078" stroke-linecap="round" x="0" y="18" width="54" height="24" rx="4"></rect>
                <path d="M13,28 L13,26.5065308 C13,25.1196242 11.8807119,24 10.5,24 C9.10966206,24 8,25.122212 8,26.5065308 L8,28 L6.50653076,28 C5.11962422,28 4,29.1192881 4,30.5 C4,31.8903379 5.12221205,33 6.50653076,33 L8,33 L8,34.4934692 C8,35.8803758 9.11928813,37 10.5,37 C11.8903379,37 13,35.877788 13,34.4934692 L13,33 L14.4934692,33 C15.8803758,33 17,31.8807119 17,30.5 C17,29.1096621 15.877788,28 14.4934692,28 L13,28 Z" id="Rectangle-1079" stroke-linecap="round"></path>
                <circle id="Oval-874" stroke-linecap="round" cx="42.5" cy="25.5" r="2.5"></circle>
                <circle id="Oval-877" stroke-linecap="round" cx="37.5" cy="34.5" r="2.5"></circle>
                <circle id="Oval-876" stroke-linecap="round" cx="47.5" cy="34.5" r="2.5"></circle>
                <path d="M26,26 L24,28" id="Line" stroke-linecap="round"></path>
                <path d="M32,26 L30,28" id="Line-248" stroke-linecap="round"></path>
                <rect id="Rectangle-1081" stroke-linecap="round" x="23" y="14" width="8" height="4"></rect>
                <path d="M27,13 L27,6.91723746" id="Line" stroke-linecap="square"></path>
                <path d="M27,6 C27,3.23857625 24.7614237,1 22,1" id="Oval-877" stroke-linecap="round"></path>
                <path d="M21,1 L10,1" id="Line" stroke-linecap="square"></path>
            </g>
        </g>
    </g>
</svg>