<?xml version="1.0" encoding="UTF-8" standalone="no"?>
<svg width="60px" height="60px" viewBox="0 0 60 60" version="1.1" xmlns="http://www.w3.org/2000/svg" xmlns:xlink="http://www.w3.org/1999/xlink" xmlns:sketch="http://www.bohemiancoding.com/sketch/ns">
    <!-- Generator: Sketch 3.2.2 (9983) - http://www.bohemiancoding.com/sketch -->
    <title>Saw</title>
    <desc>Created with Sketch.</desc>
    <defs></defs>
    <g id="outlined" stroke="none" stroke-width="1" fill="none" fill-rule="evenodd" sketch:type="MSPage">
        <g id="Activities_sliced" sketch:type="MSLayerGroup" transform="translate(-120.000000, -480.000000)"></g>
        <g id="Activities" sketch:type="MSLayerGroup" transform="translate(-134.000000, -481.000000)" stroke="#535353" stroke-width="2" stroke-linecap="round" stroke-linejoin="round">
            <g id="Saw" transform="translate(165.526912, 509.473088) rotate(-48.000000) translate(-165.526912, -509.473088) translate(131.026912, 497.973088)" sketch:type="MSShapeGroup">
                <path d="M0,7.70664338 C0,3.45038177 3.44333239,0 7.70664338,0 L23,0 L17.037037,23 L7.69609123,23 C3.44565741,23 0,19.5566676 0,15.2933566 L0,7.70664338 Z" id="Rectangle-1258"></path>
                <rect id="Rectangle-1259" x="4" y="4" width="5" height="15" rx="11"></rect>
                <path d="M59.5194068,16.5996321 L69,16 L63,3 L22.1767627,3 L18.0161468,19.2246456 L27.2325636,18.6417223 L31.5541903,14.984013 L36.2946688,18.0685589 L39.720098,17.8519061 L43.349271,14.51119 L47.8300809,17.3389629 L51.8966107,17.0817615 L55.7665531,13.4251216 L59.5194068,16.5996321 Z" id="Rectangle-1260"></path>
            </g>
        </g>
    </g>
</svg>