<?xml version="1.0" encoding="UTF-8" standalone="no"?>
<svg width="60px" height="60px" viewBox="0 0 60 60" version="1.1" xmlns="http://www.w3.org/2000/svg" xmlns:xlink="http://www.w3.org/1999/xlink" xmlns:sketch="http://www.bohemiancoding.com/sketch/ns">
    <!-- Generator: Sketch 3.2.2 (9983) - http://www.bohemiancoding.com/sketch -->
    <title>Smoking</title>
    <desc>Created with Sketch.</desc>
    <defs></defs>
    <g id="outlined" stroke="none" stroke-width="1" fill="none" fill-rule="evenodd" sketch:type="MSPage">
        <g id="Activities_sliced" sketch:type="MSLayerGroup" transform="translate(-480.000000, -840.000000)"></g>
        <g id="Activities" sketch:type="MSLayerGroup" transform="translate(-494.000000, -841.000000)" stroke="#535353" stroke-width="2" stroke-linecap="round" stroke-linejoin="round">
            <g id="Smoking" transform="translate(501.000000, 855.000000)" sketch:type="MSShapeGroup">
                <path d="M0.436748266,24.6848441 L13.8180853,21.7465183 L17.7100175,29.6302381 C17.7100175,29.6302381 29.4851127,14.7252056 35.4770027,9.72169897 C41.4688926,4.71819231 50.1108719,3.89958116 50.1108719,3.89958116 L50.1108719,8.78782797 C50.1108719,8.78782797 43.4101616,9.36521503 38.5383621,14.5707895 C33.6665626,19.7763641 23.5255333,37.294574 20.0653644,39.8076393 C16.6051956,42.3207047 10.0704521,44.1737268 4.11322396,39.80764 C-1.84400415,35.4415531 0.436748266,24.6848441 0.436748266,24.6848441 Z" id="Path-2395"></path>
                <path d="M43.2238999,5.645692 L45,9.70976413" id="Path-2396"></path>
                <path d="M5.76334127,0 C5.76334127,0 0.904042117,2.25461238 4.07307765,8.56541225 C7.24211319,14.8762121 3.71966396,17.0940917 3.71966396,17.0940917" id="Path-1358"></path>
                <path d="M10.7633413,0 C10.7633413,0 5.90404212,2.25461238 9.07307765,8.56541225 C12.2421132,14.8762121 8.71966396,17.0940917 8.71966396,17.0940917" id="Path-1357"></path>
            </g>
        </g>
    </g>
</svg>