<?xml version="1.0" encoding="UTF-8" standalone="no"?>
<svg width="60px" height="60px" viewBox="0 0 60 60" version="1.1" xmlns="http://www.w3.org/2000/svg" xmlns:xlink="http://www.w3.org/1999/xlink" xmlns:sketch="http://www.bohemiancoding.com/sketch/ns">
    <!-- Generator: Sketch 3.2.2 (9983) - http://www.bohemiancoding.com/sketch -->
    <title>Tennis</title>
    <desc>Created with Sketch.</desc>
    <defs></defs>
    <g id="outlined" stroke="none" stroke-width="1" fill="none" fill-rule="evenodd" sketch:type="MSPage">
        <g id="Activities_sliced" sketch:type="MSLayerGroup" transform="translate(-240.000000, -120.000000)"></g>
        <g id="Activities" sketch:type="MSLayerGroup" transform="translate(-254.000000, -121.000000)" stroke="#535353" stroke-width="2" stroke-linejoin="round">
            <g id="Tennis" transform="translate(265.000000, 125.000000)" sketch:type="MSShapeGroup">
                <ellipse id="Oval-825" stroke-linecap="round" cx="31" cy="14.5" rx="12" ry="14.5"></ellipse>
                <rect id="Rectangle-988" stroke-linecap="round" x="29" y="36" width="4" height="17"></rect>
                <path d="M24.0158951,26.2767789 C24.0158951,26.2767789 28.9188003,30.6710938 28.9188004,35.5680543" id="Path-1942" stroke-linecap="round"></path>
                <path d="M33,26.2478279 C33,26.2478279 38.0649606,30.6710938 38.0649608,35.5680543" id="Path-1942" stroke-linecap="round" transform="translate(35.532480, 30.907941) scale(-1, 1) translate(-35.532480, -30.907941) "></path>
                <path d="M28,6 L28,23.0312195" id="Line" stroke-linecap="square"></path>
                <path d="M37,9 L24.9584054,9" id="Line" stroke-linecap="square"></path>
                <path d="M37,15 L24.9584054,15" id="Line" stroke-linecap="square"></path>
                <path d="M37,21 L24.9584054,21" id="Line" stroke-linecap="square"></path>
                <path d="M34,6 L34,23.0312195" id="Line" stroke-linecap="square"></path>
                <circle id="Oval-826" stroke-linecap="round" cx="5.5" cy="15.5" r="5.5"></circle>
            </g>
        </g>
    </g>
</svg>