<?xml version="1.0" ?><!DOCTYPE svg  PUBLIC '-//W3C//DTD SVG 1.1//EN'  'http://www.w3.org/Graphics/SVG/1.1/DTD/svg11.dtd'><svg enable-background="new 0 0 128 128" id="Layer_1" version="1.1" viewBox="0 0 128 128" xml:space="preserve" xmlns="http://www.w3.org/2000/svg" xmlns:xlink="http://www.w3.org/1999/xlink"><path d="M62.6,77.6c-7.4,0-13.6-6-13.6-13.4s6.2-13.4,13.7-13.4L67,51v26.9L62.6,77.6z" fill="#DD3B86"/><polygon fill="#E875AE" points="68.7,20 57.8,20 55.6,55 70.9,55 "/><g><defs><polygon id="SVGID_3_" points="68.7,20 57.8,20 55.6,55 70.9,55   "/></defs><clipPath id="SVGID_2_"><use overflow="visible" xlink:href="#SVGID_3_"/></clipPath><path clip-path="url(#SVGID_2_)" d="M60.6,17.7l-0.2,0.2   c-1.5,1.5-1.5,3.9,0,5.4l0,0c1.5,1.5,1.5,3.9,0,5.4L60.1,29c-1.5,1.5-1.5,3.9,0,5.4l1.1,1.1c1.5,1.5,1.5,3.9,0,5.4l-0.7,0.7   c-1.5,1.5-1.5,3.9,0,5.4l0.5,0.5c1.5,1.5,1.5,3.9,0,5.4L59.9,54c-1.5,1.5-1.5,3.9,0,5.4l0.7,0.7c1.5,1.5,1.5,3.9,0,5.4L60,66.3   c-1.5,1.5-1.5,3.9,0,5.4" fill="none" stroke="#DD3B86" stroke-miterlimit="10" stroke-width="2"/><path clip-path="url(#SVGID_2_)" d="M66,17.7l-0.2,0.2   c-1.5,1.5-1.5,3.9,0,5.4v0c1.5,1.5,1.5,3.9,0,5.4L65.5,29c-1.5,1.5-1.5,3.9,0,5.4l1.1,1.1c1.5,1.5,1.5,3.9,0,5.4l-0.7,0.7   c-1.5,1.5-1.5,3.9,0,5.4l0.5,0.5c1.5,1.5,1.5,3.9,0,5.4L65.3,54c-1.5,1.5-1.5,3.9,0,5.4l0.7,0.7c1.5,1.5,1.5,3.9,0,5.4l-0.7,0.7   c-1.5,1.5-1.5,3.9,0,5.4" fill="none" stroke="#DD3B86" stroke-miterlimit="10" stroke-width="2"/></g><polygon fill="none" points="68.7,20 57.8,20 55.6,55 70.9,55 " stroke="#3D3D3D" stroke-miterlimit="10" stroke-width="2"/><polygon fill="#E875AE" points="70.9,75 55.6,75 57.8,114.3 63.2,119.8 68.7,114.2 "/><g><defs><polygon id="SVGID_5_" points="70.9,75 55.6,75 57.8,114.3 63.2,119.8 68.7,114.2   "/></defs><clipPath id="SVGID_4_"><use overflow="visible" xlink:href="#SVGID_5_"/></clipPath><path clip-path="url(#SVGID_4_)" d="M65.9,119.9l0.2-0.2   c1.5-1.5,1.5-3.9,0-5.4v0c-1.5-1.5-1.5-3.9,0-5.4l0.2-0.2c1.5-1.5,1.5-3.9,0-5.4l-1.1-1.1c-1.5-1.5-1.5-3.9,0-5.4L66,96   c1.5-1.5,1.5-3.9,0-5.4l-0.5-0.5c-1.5-1.5-1.5-3.9,0-5.4l1.1-1.1c1.5-1.5,1.5-3.9,0-5.4l-0.7-0.7c-1.5-1.5-1.5-3.9,0-5.4l0.7-0.7   c1.5-1.5,1.5-3.9,0-5.4" fill="none" stroke="#DD3B86" stroke-miterlimit="10" stroke-width="2"/><path clip-path="url(#SVGID_4_)" d="M60.5,119.9l0.2-0.2   c1.5-1.5,1.5-3.9,0-5.4l0,0c-1.5-1.5-1.5-3.9,0-5.4l0.2-0.2c1.5-1.5,1.5-3.9,0-5.4l-1.1-1.1c-1.5-1.5-1.5-3.9,0-5.4l0.7-0.7   c1.5-1.5,1.5-3.9,0-5.4L60,90.1c-1.5-1.5-1.5-3.9,0-5.4l1.1-1.1c1.5-1.5,1.5-3.9,0-5.4l-0.7-0.7c-1.5-1.5-1.5-3.9,0-5.4l0.7-0.7   c1.5-1.5,1.5-3.9,0-5.4" fill="none" stroke="#DD3B86" stroke-miterlimit="10" stroke-width="2"/></g><polygon fill="none" points="70.9,75 55.6,75 57.8,114.3 63.2,119.8   68.7,114.2 " stroke="#3D3D3D" stroke-miterlimit="10" stroke-width="2"/><path d="M62.2,77c-7.4,0-13.4-5.6-13.4-13s6-13,13.4-13H65  v26H62.2z" fill="none" stroke="#3D3D3D" stroke-miterlimit="10" stroke-width="2"/><circle cx="65.3" cy="64.4" fill="#FFFFFF" r="13.4"/><circle cx="65.3" cy="64.4" fill="none" r="13.4" stroke="#3D3D3D" stroke-miterlimit="10" stroke-width="2"/><polyline fill="none" points="65,55 65,64 71,64 " stroke="#3D3D3D" stroke-miterlimit="10" stroke-width="2"/><path d="M70,11.1c0-0.6-0.5-1.1-1.1-1.1H57.1  c-0.6,0-1.1,0.5-1.1,1.1v7.8c0,0.6,0.5,1.1,1.1,1.1h11.8c0.6,0,1.1-0.5,1.1-1.1V11.1z" fill="none" stroke="#3D3D3D" stroke-miterlimit="10" stroke-width="2"/><line fill="none" stroke="#3D3D3D" stroke-miterlimit="10" stroke-width="2" x1="63" x2="63" y1="20" y2="12"/><circle cx="63.2" cy="102.5" fill="#3D3D3D" r="2.2"/><circle cx="63.2" cy="110.4" fill="#3D3D3D" r="2.2"/><circle cx="63.2" cy="94.6" fill="#3D3D3D" r="2.2"/></svg>