<?xml version="1.0" ?><svg height="24px" version="1.1" viewBox="0 0 24 24" width="24px" xmlns="http://www.w3.org/2000/svg" xmlns:sketch="http://www.bohemiancoding.com/sketch/ns" xmlns:xlink="http://www.w3.org/1999/xlink"><title/><desc/><defs/><g fill="none" fill-rule="evenodd" id="miu" stroke="none" stroke-width="1"><g id="Artboard-1" transform="translate(-395.000000, -515.000000)"><g id="slice" transform="translate(215.000000, 119.000000)"/><path d="M408.488598,527.498447 C408.685871,527.904299 408.821049,528.354472 408.860968,528.885191 L408.860968,535 C408.860968,535 408.860968,535.475708 408.450238,535.65387 C408.039508,535.832031 405.626385,536.025024 405.626385,536.515198 C405.626385,537.005371 407.667462,537 409.576519,537 C411.485577,537 413.526654,537.005371 413.526654,536.515198 C413.526654,536.025024 411.113531,535.832031 410.702801,535.65387 C410.292071,535.475708 410.292071,535 410.292071,535 L410.319441,529 C410.464135,526 413.595401,525.543132 414.101668,521.5 C414.607934,517.456868 413.595401,515 413.595401,515 L409.592083,515 L405.592083,515 C405.592083,515 405.44831,515.348861 405.296205,516 L408.595401,516 L409.264872,516 L409.519963,516.618967 C409.622253,516.867169 409.761292,517.301061 409.89569,517.90706 C410.253821,519.521867 410.36688,521.444332 410.093919,523.624246 C409.896912,525.197582 409.399295,526.309571 408.488598,527.498447 L408.488598,527.498447 Z M405.292071,537 C405.292071,537 405.292071,537.475708 405.702801,537.65387 C406.113531,537.832031 408.526654,538.025024 408.526654,538.515198 C408.526654,539.005371 406.485577,539 404.576519,539 C402.667462,539 400.626385,539.005371 400.626385,538.515198 C400.626385,538.025024 403.039508,537.832031 403.450238,537.65387 C403.860968,537.475708 403.860968,537 403.860968,537 L403.860968,530.885191 C403.643024,527.98762 400.585554,527.490991 400.085817,523.5 C399.579551,519.456868 400.592083,517 400.592083,517 L404.592083,517 L408.595401,517 C408.595401,517 409.607934,519.456868 409.101668,523.5 C408.595401,527.543132 405.464135,528 405.319441,531 L405.292071,537 Z" fill="#000000" id="food-drink-wine-glasses-glyph"/></g></g></svg>