<?xml version="1.0" ?><svg enable-background="new 0 0 320 320" id="Layer_1" version="1.1" viewBox="0 0 320 320" xml:space="preserve" xmlns="http://www.w3.org/2000/svg" xmlns:xlink="http://www.w3.org/1999/xlink"><g><circle cx="160" cy="160" fill="#F9E206" r="40"/></g><g><path d="M130,160c0-20.4,15.3-37,35-39.5c-1.7-0.2-3.3-0.5-5-0.5c-22.1,0-40,17.9-40,40c0,22.1,17.9,40,40,40   c1.7,0,3.3-0.3,5-0.5C145.3,197,130,180.4,130,160z" fill="#F9E65F"/></g><g><path d="M160,202c-23.2,0-42-18.8-42-42c0-23.2,18.8-42,42-42c15.4,0,29.6,8.6,37,22.4l-3.5,1.9   C186.8,129.8,174,122,160,122c-20.9,0-38,17-38,38c0,21,17,38,38,38c21,0,38-17,38-38h4C202,183.2,183.1,202,160,202z" fill="#231F20"/></g><g><g><rect fill="#F9E206" height="40" width="10" x="155" y="60"/></g><g><rect fill="#F9E206" height="40" width="10" x="155" y="220"/></g><g><rect fill="#F9E206" height="10" width="40" x="60" y="155"/></g><g><rect fill="#F9E206" height="10" width="40" x="220" y="155"/></g><g><rect fill="#F9E206" height="10" transform="matrix(-0.7071 -0.7071 0.7071 -0.7071 103.4152 249.6981)" width="40" x="83.4" y="98.4"/></g><g><rect fill="#F9E206" height="10" transform="matrix(-0.7071 -0.7071 0.7071 -0.7071 216.5242 522.8239)" width="40" x="196.5" y="211.6"/></g><g><rect fill="#F9E206" height="40" transform="matrix(-0.7071 -0.7071 0.7071 -0.7071 23.4123 442.8289)" width="10" x="98.4" y="196.6"/></g><g><rect fill="#F9E206" height="40" transform="matrix(0.7071 0.7071 -0.7071 0.7071 136.5728 -122.834)" width="10" x="211.6" y="83.4"/></g></g><g><g><polygon fill="#231F20" points="167,102 153,102 153,60 157,60 157,98 163,98 163,60 167,60   "/></g><g><polygon fill="#231F20" points="167,260 163,260 163,222 157,222 157,260 153,260 153,218 167,218   "/></g><g><polygon fill="#231F20" points="102,167 60,167 60,163 98,163 98,157 60,157 60,153 102,153   "/></g><g><polygon fill="#231F20" points="260,167 218,167 218,153 260,153 260,157 222,157 222,163 260,163   "/></g><g><polygon fill="#231F20" points="114,123.9 84.3,94.2 87.2,91.4 114,118.3 118.3,114 91.4,87.2 94.2,84.3 123.9,114   "/></g><g><polygon fill="#231F20" points="225.7,235.7 196,206 205.9,196.1 235.6,225.8 232.8,228.6 205.9,201.7 201.7,206 228.6,232.8       "/></g><g><polygon fill="#231F20" points="94.2,235.7 91.4,232.8 118.3,206 114,201.7 87.2,228.6 84.3,225.8 114,196.1 123.9,206   "/></g><g><polygon fill="#231F20" points="205.9,123.9 196,114 225.7,84.3 228.6,87.2 201.7,114 205.9,118.3 232.8,91.4 235.6,94.2   "/></g></g></svg>