<?xml version="1.0" ?><!DOCTYPE svg  PUBLIC '-//W3C//DTD SVG 1.0//EN'  'http://www.w3.org/TR/2001/REC-SVG-20010904/DTD/svg10.dtd'><svg height="160px" id="icon" style="enable-background:new 0 0 160 160;" version="1.0" viewBox="0 0 160 160" width="160px" xml:space="preserve" xmlns="http://www.w3.org/2000/svg" xmlns:xlink="http://www.w3.org/1999/xlink"><path d="M67.109,151c-2.346,0-4.248-1.791-4.248-4v-42c0-0.263,0.027-0.526,0.083-0.785l5.31-25  c0.46-2.167,2.694-3.572,4.999-3.138c2.301,0.433,3.792,2.541,3.333,4.707l-5.228,24.611V147C71.357,149.209,69.455,151,67.109,151z   M103.921,151c0.156,0,0.315-0.008,0.474-0.025c2.333-0.244,4.013-2.222,3.754-4.417l-4.957-42c-0.259-2.195-2.372-3.778-4.69-3.534  c-2.333,0.244-4.013,2.222-3.754,4.417l4.957,42C99.945,149.487,101.784,151,103.921,151z M33.348,51.422l13.069-6.153  C43.476,42.71,41.62,39.06,41.62,35c0-7.72,6.67-14,14.868-14c8.199,0,14.869,6.28,14.869,14c0,4.06-1.856,7.71-4.797,10.27  l13.069,6.153c1.172,0.552,2.009,1.583,2.266,2.793l6.455,30.389l6.455-30.389c0.163-0.774,0.568-1.485,1.161-2.044l5.686-5.354  c-4.157-2.485-6.93-6.847-6.93-11.817c0-7.72,6.669-14,14.868-14c8.198,0,14.868,6.28,14.868,14c0,4.97-2.773,9.333-6.931,11.817  l5.686,5.354c0.594,0.559,0.998,1.27,1.162,2.044l10.62,50c0.25,1.175-0.072,2.394-0.88,3.321c-0.807,0.927-2.013,1.464-3.285,1.464  h-6.818l-4.536,38.442c-0.241,2.045-2.081,3.559-4.217,3.559c-0.157,0-0.315-0.008-0.475-0.025  c-2.332-0.244-4.013-2.222-3.753-4.417l4.956-42c0.24-2.025,2.058-3.558,4.223-3.558h5.438l-9.352-44.028l-6.707-6.315l-6.707,6.315  l-10.368,48.813c-0.396,1.87-2.141,3.215-4.165,3.215c-2.025,0-3.77-1.346-4.166-3.215L73.971,57.703l-17.482-8.23L40.05,57.211  l9.984,47.004c0.055,0.258,0.082,0.521,0.082,0.785v42c0,2.209-1.902,4-4.248,4c-2.346,0-4.248-1.791-4.248-4v-41.604L31.083,55.785  C30.707,54.016,31.635,52.229,33.348,51.422z M103.218,35c0,3.309,2.858,6,6.372,6s6.372-2.691,6.372-6s-2.858-6-6.372-6  S103.218,31.691,103.218,35z M50.116,35c0,3.308,2.857,5.999,6.371,6c0.001,0,0.002,0,0.003,0c3.513-0.001,6.371-2.692,6.371-6  c0-3.309-2.858-6-6.373-6C52.975,29,50.116,31.691,50.116,35z" id="couple"/></svg>