<?xml version="1.0" encoding="UTF-8" standalone="no"?>
<svg width="60px" height="60px" viewBox="0 0 60 60" version="1.1" xmlns="http://www.w3.org/2000/svg" xmlns:xlink="http://www.w3.org/1999/xlink" xmlns:sketch="http://www.bohemiancoding.com/sketch/ns">
    <!-- Generator: Sketch 3.2.2 (9983) - http://www.bohemiancoding.com/sketch -->
    <title>Bionicle</title>
    <desc>Created with Sketch.</desc>
    <defs></defs>
    <g id="colored" stroke="none" stroke-width="1" fill="none" fill-rule="evenodd" sketch:type="MSPage">
        <g id="Activities_sliced" sketch:type="MSLayerGroup" transform="translate(-360.000000, -240.000000)"></g>
        <g id="Activities" sketch:type="MSLayerGroup" transform="translate(-374.000000, -242.000000)" stroke="#314E55" stroke-width="2" stroke-linejoin="round">
            <g id="Bionicle" transform="translate(381.000000, 252.000000)" sketch:type="MSShapeGroup">
                <path d="M17.0094048,29.9859549 L15.2586438,14 L26.7413562,14 L24.9905952,29.9859549 M41.8676968,29.9859549 L35.0609375,0 L27.7890625,0 L27.4565644,5.08691406 L14.6879882,5.08691406 L14.2109375,0 L6.9390625,0 L0.132303169,29.9859549" id="Path-2009" stroke-linecap="round" fill="#DBCF56"></path>
                <path d="M8.5,40 C13.1944204,40 17,36.1944204 17,31.5 C17,26.8055796 13.1944204,23 8.5,23 C3.80557963,23 0,26.8055796 0,31.5 C0,36.1944204 3.80557963,40 8.5,40 Z M33.5,40 C28.8055796,40 25,36.1944204 25,31.5 C25,26.8055796 28.8055796,23 33.5,23 C38.1944204,23 42,26.8055796 42,31.5 C42,36.1944204 38.1944204,40 33.5,40 Z" id="Oval-850" stroke-linecap="round" fill="#81A4E3"></path>
                <circle id="Oval-851" stroke-linecap="round" fill="#D8D8D8" cx="8.5" cy="31.5" r="4.5"></circle>
                <circle id="Oval-851" stroke-linecap="round" fill="#D8D8D8" cx="33.5" cy="31.5" r="4.5"></circle>
                <path d="M16,10 L26,10" id="Line" stroke-linecap="square"></path>
            </g>
        </g>
    </g>
</svg>