<?xml version="1.0" encoding="UTF-8" standalone="no"?>
<svg width="60px" height="60px" viewBox="0 0 60 60" version="1.1" xmlns="http://www.w3.org/2000/svg" xmlns:xlink="http://www.w3.org/1999/xlink" xmlns:sketch="http://www.bohemiancoding.com/sketch/ns">
    <!-- Generator: Sketch 3.2.2 (9983) - http://www.bohemiancoding.com/sketch -->
    <title>Bowling</title>
    <desc>Created with Sketch.</desc>
    <defs></defs>
    <g id="colored" stroke="none" stroke-width="1" fill="none" fill-rule="evenodd" sketch:type="MSPage">
        <g id="Activities_sliced" sketch:type="MSLayerGroup" transform="translate(-600.000000, 0.000000)"></g>
        <g id="Activities" sketch:type="MSLayerGroup" transform="translate(-614.000000, -2.000000)" stroke="#314E55" stroke-width="2" stroke-linecap="round" stroke-linejoin="round">
            <g id="Bowling" transform="translate(617.000000, 8.000000)" sketch:type="MSShapeGroup">
                <circle id="Oval-805" fill="#E65F58" cx="17" cy="34" r="17"></circle>
                <path d="M17,47.8518519 C24.6501665,47.8518519 30.8518519,41.6501665 30.8518519,34" id="Oval-807"></path>
                <circle id="Oval-806" fill="#EAEAEA" cx="10.7037037" cy="25.1851852" r="1.88888889"></circle>
                <circle id="Oval-806" fill="#EAEAEA" cx="6.92592593" cy="30.8518519" r="1.88888889"></circle>
                <circle id="Oval-806" fill="#EAEAEA" cx="14.4814815" cy="30.8518519" r="1.88888889"></circle>
                <path d="M38,21 L53,21 L51,39 L40,39 L38,21 Z" id="Rectangle-953" fill="#D8D8D8"></path>
                <path d="M41,10 L50,10 L52,19 L39,19 L41,10 Z" id="Rectangle-954" fill="#D8D8D8"></path>
                <path d="M48.3286672,8 C49.3481665,7.17502225 50,5.91363305 50,4.5 C50,2.01471863 47.9852814,0 45.5,0 C43.0147186,0 41,2.01471863 41,4.5 C41,5.91363305 41.6518335,7.17502225 42.6713328,8 L48.3286672,8 Z" id="Oval-809" fill="#D8D8D8"></path>
            </g>
        </g>
    </g>
</svg>