<?xml version="1.0" encoding="UTF-8" standalone="no"?>
<svg width="60px" height="60px" viewBox="0 0 60 60" version="1.1" xmlns="http://www.w3.org/2000/svg" xmlns:xlink="http://www.w3.org/1999/xlink" xmlns:sketch="http://www.bohemiancoding.com/sketch/ns">
    <!-- Generator: Sketch 3.2.2 (9983) - http://www.bohemiancoding.com/sketch -->
    <title>Gardening</title>
    <desc>Created with Sketch.</desc>
    <defs></defs>
    <g id="colored" stroke="none" stroke-width="1" fill="none" fill-rule="evenodd" sketch:type="MSPage">
        <g id="Activities_sliced" sketch:type="MSLayerGroup"></g>
        <g id="Activities" sketch:type="MSLayerGroup" transform="translate(-14.000000, -2.000000)" stroke="#314E55" stroke-width="2" stroke-linejoin="round">
            <g id="Gardening" transform="translate(46.000000, 33.292893) rotate(-315.000000) translate(-46.000000, -33.292893) translate(32.500000, -0.207107)" sketch:type="MSShapeGroup">
                <path d="M5.9744027,59.3726573 C9.3897985,63.4818723 14,66.7216473 14,66.7216473 C14,66.7216473 19.1598264,62.988642 22.7732711,58.4543705 C25.5476878,54.9729396 27,51.0191441 27,47.92 C27,40.784481 21.1797017,37 14,37 C6.82029825,37 1,40.784481 1,47.92 C1,51.2952439 2.90872428,55.6842028 5.9744027,59.3726573 Z" id="Oval-797" stroke-linecap="round" fill="#E4AD40"></path>
                <rect id="Rectangle-947" stroke-linecap="round" fill="#EAEAEA" x="12" y="22" width="4" height="15"></rect>
                <path d="M8,22 L20,22" id="Line" stroke-linecap="square"></path>
                <rect id="Rectangle-948" stroke-linecap="round" fill="#D8D8D8" x="9" y="1" width="10" height="22"></rect>
                <path d="M9.07217494,38.2787248 L14.0300721,43.982336 L20.0358456,38.2787248" id="Path-1866" stroke-linecap="round"></path>
            </g>
        </g>
    </g>
</svg>