<?xml version="1.0" encoding="UTF-8" standalone="no"?>
<svg width="60px" height="60px" viewBox="0 0 60 60" version="1.1" xmlns="http://www.w3.org/2000/svg" xmlns:xlink="http://www.w3.org/1999/xlink" xmlns:sketch="http://www.bohemiancoding.com/sketch/ns">
    <!-- Generator: Sketch 3.2.2 (9983) - http://www.bohemiancoding.com/sketch -->
    <title>Headphones</title>
    <desc>Created with Sketch.</desc>
    <defs></defs>
    <g id="colored" stroke="none" stroke-width="1" fill="none" fill-rule="evenodd" sketch:type="MSPage">
        <g id="Activities_sliced" sketch:type="MSLayerGroup" transform="translate(-600.000000, -720.000000)"></g>
        <g id="Activities" sketch:type="MSLayerGroup" transform="translate(-614.000000, -722.000000)" stroke="#314E55" stroke-width="2" stroke-linejoin="round">
            <g id="Headphones" transform="translate(616.000000, 726.000000)" sketch:type="MSShapeGroup">
                <g id="Rectangle-1195-+-Rectangle-1196" transform="translate(45.863479, 35.428836) rotate(-345.000000) translate(-45.863479, -35.428836) translate(38.363479, 23.428836)" stroke-linecap="round">
                    <rect id="Rectangle-1195" fill="#E9E7D1" x="0.650287526" y="0.533405072" width="11" height="23" rx="10"></rect>
                    <rect id="Rectangle-1196" x="9.65028753" y="6.53340507" width="5" height="12"></rect>
                </g>
                <g id="Rectangle-1195-+-Rectangle-1196" transform="translate(11.136521, 35.428836) scale(-1, 1) rotate(-345.000000) translate(-11.136521, -35.428836) translate(3.636521, 23.428836)" stroke-linecap="round">
                    <rect id="Rectangle-1195" fill="#E9E7D1" x="0.650287526" y="0.533405072" width="11" height="23" rx="10"></rect>
                    <rect id="Rectangle-1196" x="9.65028753" y="6.53340507" width="5" height="12"></rect>
                </g>
                <path d="M33,50 L51,50" id="Line" stroke-linecap="square"></path>
                <rect id="Rectangle-1199" stroke-linecap="round" fill="#5ECB66" x="21" y="46" width="12" height="8" rx="15"></rect>
                <path d="M51,50 C53.7614237,50 56,47.7614237 56,45" id="Oval-978" stroke-linecap="round"></path>
                <path d="M51,45 C53.7614237,45 56,42.7614237 56,40" id="Oval-978" stroke-linecap="round" transform="translate(53.500000, 42.500000) scale(1, -1) translate(-53.500000, -42.500000) "></path>
                <path d="M53,24.5 C53,10.9690236 42.0309764,0 28.5,0 C14.9690236,0 4,10.9690236 4,24.5" id="Oval-978" stroke-linecap="round"></path>
            </g>
        </g>
    </g>
</svg>