<?xml version="1.0" encoding="UTF-8" standalone="no"?>
<svg width="60px" height="60px" viewBox="0 0 60 60" version="1.1" xmlns="http://www.w3.org/2000/svg" xmlns:xlink="http://www.w3.org/1999/xlink" xmlns:sketch="http://www.bohemiancoding.com/sketch/ns">
    <!-- Generator: Sketch 3.2.2 (9983) - http://www.bohemiancoding.com/sketch -->
    <title>Joystick</title>
    <desc>Created with Sketch.</desc>
    <defs></defs>
    <g id="colored" stroke="none" stroke-width="1" fill="none" fill-rule="evenodd" sketch:type="MSPage">
        <g id="Activities_sliced" sketch:type="MSLayerGroup" transform="translate(-840.000000, -360.000000)"></g>
        <g id="Activities" sketch:type="MSLayerGroup" transform="translate(-854.000000, -362.000000)" stroke="#314E55" stroke-width="2" stroke-linejoin="round">
            <g id="Joystick" transform="translate(865.000000, 365.000000)" sketch:type="MSShapeGroup">
                <circle id="Oval-879" stroke-linecap="round" fill="#D8D8D8" cx="20" cy="9" r="9"></circle>
                <path d="M14,9 C14,12.3137085 16.6862915,15 20,15" id="Oval-881" stroke-linecap="round"></path>
                <rect id="Rectangle-1084" stroke-linecap="round" fill="#E4AD40" x="16" y="17" width="8" height="26"></rect>
                <path d="M40,52 C40,46.4771525 31.045695,42 20,42 C8.954305,42 0,46.4771525 0,52 L40,52 Z" id="Oval-880" stroke-linecap="round" fill="#5ECB66"></path>
                <path d="M5,52 L5,54" id="Line" stroke-linecap="square"></path>
                <path d="M35,52 L35,54" id="Line-252" stroke-linecap="square"></path>
                <path d="M37,44 C37,41.790861 35.209139,40 33,40 C30.790861,40 29,41.790861 29,44" id="Oval-880" stroke-linecap="round" fill="#D8D8D8" transform="translate(33.000000, 44.000000) rotate(23.000000) translate(-33.000000, -44.000000) "></path>
            </g>
        </g>
    </g>
</svg>