<?xml version="1.0" encoding="UTF-8" standalone="no"?>
<svg width="60px" height="60px" viewBox="0 0 60 60" version="1.1" xmlns="http://www.w3.org/2000/svg" xmlns:xlink="http://www.w3.org/1999/xlink" xmlns:sketch="http://www.bohemiancoding.com/sketch/ns">
    <!-- Generator: Sketch 3.2.2 (9983) - http://www.bohemiancoding.com/sketch -->
    <title>Mariomush</title>
    <desc>Created with Sketch.</desc>
    <defs></defs>
    <g id="colored" stroke="none" stroke-width="1" fill="none" fill-rule="evenodd" sketch:type="MSPage">
        <g id="Activities_sliced" sketch:type="MSLayerGroup" transform="translate(-240.000000, -960.000000)"></g>
        <g id="Activities" sketch:type="MSLayerGroup" transform="translate(-254.000000, -962.000000)" stroke="#314E55" stroke-width="2" stroke-linecap="round" stroke-linejoin="round">
            <g id="Mariomush" transform="translate(259.000000, 970.000000)" sketch:type="MSShapeGroup">
                <path d="M39.4010328,31.1819011 C45.8126971,32.9809292 50,33.591678 50,24.8088851 C50,10.4494816 38.8071187,0.0687674284 25,0.0687674284 C11.1928813,0.0687674284 0,10.4494816 0,24.8088851 C0,33.6916901 4.28320992,32.9658016 10.818864,31.1199928" id="Oval-1022" fill="#E65F58"></path>
                <path d="M40,30.3480465 L40,37.8268187 C40,41.7884573 36.7894745,45 32.8333176,45 L17.1666824,45 C13.208633,45 10,41.7892388 10,37.8268187 L10,30.3480465 C14.1783027,29.2044036 19.3719704,27.4182606 25,27.4182606 C30.6280296,27.4182606 35.8216973,29.2044036 40,30.3480465 Z" id="Rectangle-1242" fill="#D8D8D8"></path>
                <rect id="Rectangle-1243" fill="#73C9C9" x="28" y="32" width="4" height="8" rx="23"></rect>
                <rect id="Rectangle-1244" fill="#73C9C9" x="18" y="32" width="4" height="8" rx="23"></rect>
                <polygon id="Star-13" fill="#E4AD40" points="25 19.5 19.7099327 22.2811529 20.7202457 16.3905765 16.4404914 12.2188471 22.3549664 11.3594235 25 6 27.6450336 11.3594235 33.5595086 12.2188471 29.2797543 16.3905765 30.2900673 22.2811529 "></polygon>
                <path d="M2.8990921,13.1702515 L7.92666546,12.7537481 L4.38507381,18.0386325 L6.59280045,24.1552758 L0.992354067,21.686442" id="Path-2424" fill="#E4AD40"></path>
                <path d="M43.8990921,13.1702515 L48.9266655,12.7537481 L45.3850738,18.0386325 L47.5928005,24.1552758 L41.9923541,21.686442" id="Path-2424" fill="#E4AD40" transform="translate(45.459510, 18.454512) scale(-1, 1) translate(-45.459510, -18.454512) "></path>
            </g>
        </g>
    </g>
</svg>