<?xml version="1.0" encoding="UTF-8" standalone="no"?>
<svg width="60px" height="60px" viewBox="0 0 60 60" version="1.1" xmlns="http://www.w3.org/2000/svg" xmlns:xlink="http://www.w3.org/1999/xlink" xmlns:sketch="http://www.bohemiancoding.com/sketch/ns">
    <!-- Generator: Sketch 3.2.2 (9983) - http://www.bohemiancoding.com/sketch -->
    <title>Recording</title>
    <desc>Created with Sketch.</desc>
    <defs></defs>
    <g id="colored" stroke="none" stroke-width="1" fill="none" fill-rule="evenodd" sketch:type="MSPage">
        <g id="Activities_sliced" sketch:type="MSLayerGroup" transform="translate(-840.000000, -720.000000)"></g>
        <g id="Activities" sketch:type="MSLayerGroup" transform="translate(-854.000000, -722.000000)" stroke="#314E55" stroke-width="2" stroke-linejoin="round">
            <g id="Recording" transform="translate(857.000000, 736.000000)" sketch:type="MSShapeGroup">
                <rect id="Rectangle-1203" stroke-linecap="round" fill="#73C9C9" x="2" y="11" width="5" height="12" rx="2"></rect>
                <rect id="Rectangle-1203" stroke-linecap="round" fill="#73C9C9" x="9" y="5" width="5" height="24" rx="2"></rect>
                <rect id="Rectangle-1206" stroke-linecap="round" fill="#73C9C9" x="30" y="0" width="5" height="34" rx="2"></rect>
                <rect id="Rectangle-1207" stroke-linecap="round" fill="#73C9C9" x="37" y="4" width="5" height="26" rx="2"></rect>
                <rect id="Rectangle-1208" stroke-linecap="round" fill="#73C9C9" x="44" y="8" width="5" height="18" rx="2"></rect>
                <rect id="Rectangle-1204" stroke-linecap="round" fill="#73C9C9" x="16" y="7" width="5" height="20" rx="2"></rect>
                <rect id="Rectangle-1205" stroke-linecap="round" fill="#73C9C9" x="23" y="13" width="5" height="8" rx="2"></rect>
                <path d="M0,17 L2,17" id="Line" stroke-linecap="square"></path>
                <path d="M8,17 L10,17" id="Line" stroke-linecap="square"></path>
                <path d="M15,17 L17,17" id="Line" stroke-linecap="square"></path>
                <path d="M28,17 L30,17" id="Line" stroke-linecap="square"></path>
                <path d="M35,17 L37,17" id="Line" stroke-linecap="square"></path>
                <path d="M42,17 L44,17" id="Line" stroke-linecap="square"></path>
                <path d="M21,17 L23,17" id="Line" stroke-linecap="square"></path>
                <path d="M49,17 L51,17" id="Line" stroke-linecap="square"></path>
            </g>
        </g>
    </g>
</svg>