<?xml version="1.0" encoding="UTF-8" standalone="no"?>
<svg width="60px" height="60px" viewBox="0 0 60 60" version="1.1" xmlns="http://www.w3.org/2000/svg" xmlns:xlink="http://www.w3.org/1999/xlink" xmlns:sketch="http://www.bohemiancoding.com/sketch/ns">
    <!-- Generator: Sketch 3.2.2 (9983) - http://www.bohemiancoding.com/sketch -->
    <title>Bowling</title>
    <desc>Created with Sketch.</desc>
    <defs></defs>
    <g id="filled" stroke="none" stroke-width="1" fill="none" fill-rule="evenodd" sketch:type="MSPage">
        <g id="Activities_sliced" sketch:type="MSLayerGroup" transform="translate(-600.000000, 0.000000)"></g>
        <g id="Activities" sketch:type="MSLayerGroup" transform="translate(-614.000000, -1.000000)" stroke="#535353" stroke-width="2" stroke-linecap="round" stroke-linejoin="round">
            <g id="Bowling" transform="translate(617.000000, 7.000000)" sketch:type="MSShapeGroup">
                <path d="M17,51 C26.3888407,51 34,43.3888407 34,34 C34,24.6111593 26.3888407,17 17,17 C7.61115925,17 0,24.6111593 0,34 C0,43.3888407 7.61115925,51 17,51 Z M10.7037037,27.0740741 C11.7469082,27.0740741 12.5925926,26.2283897 12.5925926,25.1851852 C12.5925926,24.1419807 11.7469082,23.2962963 10.7037037,23.2962963 C9.66049918,23.2962963 8.81481481,24.1419807 8.81481481,25.1851852 C8.81481481,26.2283897 9.66049918,27.0740741 10.7037037,27.0740741 Z M6.92592593,32.7407407 C7.96913045,32.7407407 8.81481481,31.8950564 8.81481481,30.8518519 C8.81481481,29.8086473 7.96913045,28.962963 6.92592593,28.962963 C5.8827214,28.962963 5.03703704,29.8086473 5.03703704,30.8518519 C5.03703704,31.8950564 5.8827214,32.7407407 6.92592593,32.7407407 Z M14.4814815,32.7407407 C15.524686,32.7407407 16.3703704,31.8950564 16.3703704,30.8518519 C16.3703704,29.8086473 15.524686,28.962963 14.4814815,28.962963 C13.438277,28.962963 12.5925926,29.8086473 12.5925926,30.8518519 C12.5925926,31.8950564 13.438277,32.7407407 14.4814815,32.7407407 Z" id="Oval-805" fill="#D8D8D8"></path>
                <path d="M17,47.8518519 C24.6501665,47.8518519 30.8518519,41.6501665 30.8518519,34" id="Oval-807"></path>
                <path d="M38,21 L53,21 L51,39 L40,39 L38,21 Z" id="Rectangle-953" fill="#D8D8D8"></path>
                <path d="M41,10 L50,10 L52,19 L39,19 L41,10 Z" id="Rectangle-954" fill="#D8D8D8"></path>
                <path d="M48.3286672,8 C49.3481665,7.17502225 50,5.91363305 50,4.5 C50,2.01471863 47.9852814,0 45.5,0 C43.0147186,0 41,2.01471863 41,4.5 C41,5.91363305 41.6518335,7.17502225 42.6713328,8 L48.3286672,8 Z" id="Oval-809" fill="#D8D8D8"></path>
            </g>
        </g>
    </g>
</svg>