<?xml version="1.0" encoding="UTF-8" standalone="no"?>
<svg width="60px" height="60px" viewBox="0 0 60 60" version="1.1" xmlns="http://www.w3.org/2000/svg" xmlns:xlink="http://www.w3.org/1999/xlink" xmlns:sketch="http://www.bohemiancoding.com/sketch/ns">
    <!-- Generator: Sketch 3.2.2 (9983) - http://www.bohemiancoding.com/sketch -->
    <title>Cinema</title>
    <desc>Created with Sketch.</desc>
    <defs></defs>
    <g id="filled" stroke="none" stroke-width="1" fill="none" fill-rule="evenodd" sketch:type="MSPage">
        <g id="Activities_sliced" sketch:type="MSLayerGroup" transform="translate(-120.000000, -720.000000)"></g>
        <g id="Activities" sketch:type="MSLayerGroup" transform="translate(-134.000000, -721.000000)" stroke="#535353" stroke-width="2" stroke-linecap="round" stroke-linejoin="round">
            <g id="Cinema" transform="translate(137.000000, 726.000000)" sketch:type="MSShapeGroup">
                <rect id="Rectangle-1175" fill="#D8D8D8" x="1" y="0" width="52" height="7"></rect>
                <rect id="Rectangle-1175" fill="#D8D8D8" x="1" y="27" width="52" height="7"></rect>
                <rect id="Rectangle-1175" x="1" y="5" width="52" height="24"></rect>
                <path d="M54,51 C54,46.581722 50.418278,43 46,43 C41.581722,43 38,46.581722 38,51" id="Oval-968"></path>
                <path d="M35,51 C35,46.581722 31.418278,43 27,43 C22.581722,43 19,46.581722 19,51" id="Oval-968"></path>
                <path d="M16,51 C16,46.581722 12.418278,43 8,43 C3.581722,43 0,46.581722 0,51" id="Oval-968"></path>
                <path d="M23.5,21.5 L23.5,12.5 L32.5,17 L23.5,21.5 Z" id="Triangle-38" fill="#D8D8D8"></path>
            </g>
        </g>
    </g>
</svg>