<?xml version="1.0" encoding="UTF-8" standalone="no"?>
<svg width="60px" height="60px" viewBox="0 0 60 60" version="1.1" xmlns="http://www.w3.org/2000/svg" xmlns:xlink="http://www.w3.org/1999/xlink" xmlns:sketch="http://www.bohemiancoding.com/sketch/ns">
    <!-- Generator: Sketch 3.2.2 (9983) - http://www.bohemiancoding.com/sketch -->
    <title>Drill</title>
    <desc>Created with Sketch.</desc>
    <defs></defs>
    <g id="filled" stroke="none" stroke-width="1" fill="none" fill-rule="evenodd" sketch:type="MSPage">
        <g id="Activities_sliced" sketch:type="MSLayerGroup" transform="translate(-720.000000, -840.000000)"></g>
        <g id="Activities" sketch:type="MSLayerGroup" transform="translate(-734.000000, -841.000000)" stroke="#535353" stroke-width="2" stroke-linejoin="round">
            <g id="Drill" transform="translate(736.000000, 857.000000)" sketch:type="MSShapeGroup">
                <path d="M50.2816453,13.6178984 C53.0263841,12.6701669 55,10.0651505 55,7 C55,3.14187327 51.863213,0 47.9937902,0 L20.0062098,0 C16.1396498,0 13,3.13400675 13,7 C13,10.8581267 16.136787,14 20.0062098,14 L38.1243557,14 L42.0309928,28.5797682 C42.8774621,31.7388347 46.1221489,33.6058507 49.2807845,32.7594969 C52.4329928,31.9148652 54.3147377,28.6696041 53.4694239,25.5148498 L50.2816453,13.6178984 Z" id="Rectangle-1274" stroke-linecap="round" fill="#D8D8D8"></path>
                <path d="M21,2 L21,12" id="Line" stroke-linecap="square"></path>
                <path d="M14,7 L0,7" id="Line" stroke-linecap="square"></path>
                <path d="M33,5 L33,9" id="Line" stroke-linecap="square"></path>
                <path d="M29,5 L29,9" id="Line" stroke-linecap="square"></path>
                <path d="M25,5 L25,9" id="Line" stroke-linecap="square"></path>
                <circle id="Oval-1039" stroke-linecap="round" cx="48" cy="7" r="2"></circle>
                <path d="M37.7073271,13.2105474 L35.4135074,17.9121298 L37.0898488,20.3578735" id="Path-2488" stroke-linecap="round"></path>
            </g>
        </g>
    </g>
</svg>