<?xml version="1.0" encoding="UTF-8" standalone="no"?>
<svg width="60px" height="60px" viewBox="0 0 60 60" version="1.1" xmlns="http://www.w3.org/2000/svg" xmlns:xlink="http://www.w3.org/1999/xlink" xmlns:sketch="http://www.bohemiancoding.com/sketch/ns">
    <!-- Generator: Sketch 3.2.2 (9983) - http://www.bohemiancoding.com/sketch -->
    <title>Electricsaw</title>
    <desc>Created with Sketch.</desc>
    <defs></defs>
    <g id="filled" stroke="none" stroke-width="1" fill="none" fill-rule="evenodd" sketch:type="MSPage">
        <g id="Activities_sliced" sketch:type="MSLayerGroup" transform="translate(-360.000000, -480.000000)"></g>
        <g id="Activities" sketch:type="MSLayerGroup" transform="translate(-374.000000, -481.000000)" stroke="#535353" stroke-width="2" stroke-linejoin="round">
            <g id="Electicsaw" transform="translate(404.500000, 505.761851) rotate(-312.000000) translate(-404.500000, -505.761851) translate(371.000000, 494.261851)" sketch:type="MSShapeGroup">
                <path d="M38,5.00955791 C38,2.79514022 39.7863871,1.12625996 41.9937799,1.28227615 L61.0728868,2.63076732 C63.2785905,2.78666414 65.2382371,4.69562687 65.4497863,6.89358168 L66.6168804,19.0194618 C66.8284715,21.2178523 65.2078053,23 62.9981215,23 L42.0018785,23 C39.791702,23 38,21.1996477 38,18.9904421 L38,5.00955791 Z M42,8 C42,6.8954305 42.8982124,6 43.9907951,6 L60.0092049,6 C61.1086907,6 62,6.88772964 62,8 C62,9.1045695 61.1017876,10 60.0092049,10 L43.9907951,10 C42.8913093,10 42,9.11227036 42,8 Z" id="Rectangle-1104" stroke-linecap="round" fill="#D8D8D8"></path>
                <rect id="Rectangle-1105" stroke-linecap="round" fill="#D8D8D8" x="0" y="13" width="35" height="9"></rect>
                <path d="M37.213097,6 L33,6 L33,0.647962281" id="Path-2143" stroke-linecap="round"></path>
                <path d="M33,5 L33,8" id="Line" stroke-linecap="square"></path>
            </g>
        </g>
    </g>
</svg>