<?xml version="1.0" encoding="UTF-8" standalone="no"?>
<svg width="60px" height="60px" viewBox="0 0 60 60" version="1.1" xmlns="http://www.w3.org/2000/svg" xmlns:xlink="http://www.w3.org/1999/xlink" xmlns:sketch="http://www.bohemiancoding.com/sketch/ns">
    <!-- Generator: Sketch 3.2.2 (9983) - http://www.bohemiancoding.com/sketch -->
    <title>Saw</title>
    <desc>Created with Sketch.</desc>
    <defs></defs>
    <g id="filled" stroke="none" stroke-width="1" fill="none" fill-rule="evenodd" sketch:type="MSPage">
        <g id="Activities_sliced" sketch:type="MSLayerGroup" transform="translate(-120.000000, -480.000000)"></g>
        <g id="Activities" sketch:type="MSLayerGroup" transform="translate(-134.000000, -481.000000)" stroke="#535353" stroke-width="2" stroke-linecap="round" stroke-linejoin="round">
            <g id="Saw" transform="translate(165.155340, 509.138523) rotate(-48.000000) translate(-165.155340, -509.138523) translate(130.655340, 497.138523)" sketch:type="MSShapeGroup">
                <path d="M6.82121026e-13,8.70664338 C6.82121026e-13,4.45038177 3.44333239,1 7.70664338,1 L23,1 L17.037037,24 L7.69609123,24 C3.44565741,24 6.82121026e-13,20.5566676 6.82121026e-13,16.2933566 L6.82121026e-13,8.70664338 Z M4,7.49378313 C4,6.11650474 5.10966206,5 6.5,5 C7.88071187,5 9,6.12743795 9,7.49378313 L9,17.5062169 C9,18.8834953 7.89033794,20 6.5,20 C5.11928813,20 4,18.8725621 4,17.5062169 L4,7.49378313 Z" id="Rectangle-1258" fill="#D8D8D8"></path>
                <path d="M59.5194068,17.5996321 L69,17 L63,4 L22.1767627,4 L18.0161468,20.2246456 L27.2325636,19.6417223 L31.5541903,15.984013 L36.2946688,19.0685589 L39.720098,18.8519061 L43.349271,15.51119 L47.8300809,18.3389629 L51.8966107,18.0817615 L55.7665531,14.4251216 L59.5194068,17.5996321 Z" id="Rectangle-1260"></path>
            </g>
        </g>
    </g>
</svg>