<?xml version="1.0" encoding="UTF-8" standalone="no"?>
<svg width="60px" height="60px" viewBox="0 0 60 60" version="1.1" xmlns="http://www.w3.org/2000/svg" xmlns:xlink="http://www.w3.org/1999/xlink" xmlns:sketch="http://www.bohemiancoding.com/sketch/ns">
    <!-- Generator: Sketch 3.2.2 (9983) - http://www.bohemiancoding.com/sketch -->
    <title>Travelbag</title>
    <desc>Created with Sketch.</desc>
    <defs></defs>
    <g id="filled" stroke="none" stroke-width="1" fill="none" fill-rule="evenodd" sketch:type="MSPage">
        <g id="Activities_sliced" sketch:type="MSLayerGroup" transform="translate(-720.000000, -960.000000)"></g>
        <g id="Activities" sketch:type="MSLayerGroup" transform="translate(-734.000000, -961.000000)" stroke="#535353" stroke-width="2" stroke-linejoin="round">
            <g id="Travelbag" transform="translate(749.000000, 963.000000)" sketch:type="MSShapeGroup">
                <rect id="Rectangle-1248" stroke-linecap="round" fill="#D8D8D8" x="0" y="14" width="30" height="40" rx="4"></rect>
                <path d="M11,15 L11,2" id="Line" stroke-linecap="square"></path>
                <path d="M19,15 L19,2" id="Line" stroke-linecap="square"></path>
                <path d="M9,1 L21,1" id="Line" stroke-linecap="round"></path>
                <rect id="Rectangle-1249" stroke-linecap="round" x="28" y="28" width="5" height="9"></rect>
                <path d="M8,53 L8,55" id="Line" stroke-linecap="round"></path>
                <path d="M21,53 L21,55" id="Line-281" stroke-linecap="round"></path>
                <path d="M7.99420208,49 C6.34054993,49 5,47.6660385 5,45.9998738 L5,35.0001262 C5,33.3432023 6.34331197,32 7.99420208,32 L22.0057979,32 C23.6594501,32 25,33.3339615 25,35.0001262 L25,45.9998738 C25,47.6567977 23.656688,49 22.0057979,49" id="Rectangle-1250" stroke-linecap="round"></path>
                <path d="M10,35 L20,35" id="Line" stroke-linecap="square"></path>
            </g>
        </g>
    </g>
</svg>