<?xml version="1.0" encoding="UTF-8" standalone="no"?>
<svg width="60px" height="60px" viewBox="0 0 60 60" version="1.1" xmlns="http://www.w3.org/2000/svg" xmlns:xlink="http://www.w3.org/1999/xlink" xmlns:sketch="http://www.bohemiancoding.com/sketch/ns">
    <!-- Generator: Sketch 3.2.2 (9983) - http://www.bohemiancoding.com/sketch -->
    <title>Duel</title>
    <desc>Created with Sketch.</desc>
    <defs></defs>
    <g id="colored" stroke="none" stroke-width="1" fill="none" fill-rule="evenodd" sketch:type="MSPage">
        <g id="Activities_sliced" sketch:type="MSLayerGroup" transform="translate(-840.000000, -480.000000)"></g>
        <g id="Activities" sketch:type="MSLayerGroup" transform="translate(-854.000000, -482.000000)" stroke="#314E55" stroke-width="2" stroke-linecap="round" stroke-linejoin="round">
            <g id="Duel" transform="translate(853.000000, 481.000000)" sketch:type="MSShapeGroup">
                <g id="Rectangle-1110-+-Oval-920-+-Line" transform="translate(31.236444, 31.280087) rotate(-315.000000) translate(-31.236444, -31.280087) translate(20.736444, -1.219913)">
                    <rect id="Rectangle-1110" fill="#F58CAC" x="8.58874503" y="42.588745" width="4" height="22"></rect>
                    <path d="M20.588745,52.588745 C20.588745,47.0658975 16.1115925,42.588745 10.588745,42.588745 C5.06589753,42.588745 0.58874503,47.0658975 0.58874503,52.588745" id="Oval-920"></path>
                    <path d="M10.588745,42.588745 L10.588745,0.224585923" id="Line"></path>
                </g>
                <g id="Rectangle-1110-+-Oval-920-+-Line-2" transform="translate(31.943551, 31.280087) rotate(-45.000000) translate(-31.943551, -31.280087) translate(21.443551, -1.219913)">
                    <rect id="Rectangle-1110" fill="#73C9C9" x="8.41125497" y="42.588745" width="4" height="22"></rect>
                    <path d="M20.411255,52.588745 C20.411255,47.0658975 15.9341025,42.588745 10.411255,42.588745 C4.88840747,42.588745 0.41125497,47.0658975 0.41125497,52.588745" id="Oval-920"></path>
                    <path d="M10.411255,42.588745 L10.411255,0.224585923" id="Line"></path>
                </g>
            </g>
        </g>
    </g>
</svg>