<?xml version="1.0" encoding="UTF-8" standalone="no"?>
<svg width="60px" height="60px" viewBox="0 0 60 60" version="1.1" xmlns="http://www.w3.org/2000/svg" xmlns:xlink="http://www.w3.org/1999/xlink" xmlns:sketch="http://www.bohemiancoding.com/sketch/ns">
    <!-- Generator: Sketch 3.2.2 (9983) - http://www.bohemiancoding.com/sketch -->
    <title>Guitar</title>
    <desc>Created with Sketch.</desc>
    <defs></defs>
    <g id="colored" stroke="none" stroke-width="1" fill="none" fill-rule="evenodd" sketch:type="MSPage">
        <g id="Activities_sliced" sketch:type="MSLayerGroup" transform="translate(-480.000000, -120.000000)"></g>
        <g id="Activities" sketch:type="MSLayerGroup" transform="translate(-494.000000, -122.000000)" stroke="#314E55" stroke-width="2" stroke-linecap="round" stroke-linejoin="round">
            <g id="Guitar" transform="translate(521.446740, 149.368085) rotate(-45.000000) translate(-521.446740, -149.368085) translate(505.946740, 117.368085)" sketch:type="MSShapeGroup">
                <path d="M19.2787449,30.1471863 L20.3108179,30.1471863 C26.1330014,30.1471863 30.8528137,34.8052891 30.8528137,40.5432976 L30.8528137,42.8078268 C30.4840215,42.7142155 30.0973902,42.6644276 29.6989676,42.6644276 C27.1499611,42.6644276 25.083583,44.7023039 25.083583,47.2161518 C25.083583,49.7299996 27.1499611,51.7678759 29.6989676,51.7678759 C30.0973902,51.7678759 30.4840215,51.718088 30.8528137,51.6244767 L30.8528137,58.5933245 C30.8528137,61.1083529 28.7907922,63.1471863 26.2310596,63.1471863 L5.47456788,63.1471863 C2.92204355,63.1471863 0.852813742,61.1077922 0.852813742,58.5933245 L0.852813742,51.6244767 C1.22160596,51.718088 1.60823732,51.7678759 2.0066599,51.7678759 C4.55566643,51.7678759 6.62204451,49.7299996 6.62204451,47.2161518 C6.62204451,44.7023039 4.55566643,42.6644276 2.0066599,42.6644276 C1.60823732,42.6644276 1.22160596,42.7142155 0.852813742,42.8078268 L0.852813742,40.5432976 C0.852813742,34.8016838 5.57764705,30.1471863 11.3972802,30.1471863 L12.7884445,30.1471863" id="Rectangle-990" fill="#E4AD40"></path>
                <path d="M11.6861471,0.147186258 L20.0194804,0.147186258 L20.8528137,14.1471863 L10.8528137,14.1471863 L11.6861471,0.147186258 Z" id="Rectangle-991" fill="#D8D8D8"></path>
                <circle id="Oval-827" fill="#EAEAEA" cx="15.8528137" cy="44.1471863" r="4"></circle>
                <rect id="Rectangle-991" fill="#D8D8D8" x="12.8528137" y="12.1471863" width="6" height="24"></rect>
                <path d="M19.8528137,3.14718626 L21.8528137,3.14718626" id="Line"></path>
                <path d="M19.8528137,7.14718626 L21.8528137,7.14718626" id="Line"></path>
                <path d="M19.8528137,11.1471863 L21.8528137,11.1471863" id="Line"></path>
                <path d="M9.85281374,3.14718626 L11.8528137,3.14718626" id="Line-245"></path>
                <path d="M9.85281374,7.14718626 L11.8528137,7.14718626" id="Line-243"></path>
                <path d="M9.85281374,11.1471863 L11.8528137,11.1471863" id="Line-244"></path>
            </g>
        </g>
    </g>
</svg>