<?xml version="1.0" encoding="UTF-8" standalone="no"?>
<svg width="60px" height="60px" viewBox="0 0 60 60" version="1.1" xmlns="http://www.w3.org/2000/svg" xmlns:xlink="http://www.w3.org/1999/xlink" xmlns:sketch="http://www.bohemiancoding.com/sketch/ns">
    <!-- Generator: Sketch 3.2.2 (9983) - http://www.bohemiancoding.com/sketch -->
    <title>Hacking</title>
    <desc>Created with Sketch.</desc>
    <defs></defs>
    <g id="colored" stroke="none" stroke-width="1" fill="none" fill-rule="evenodd" sketch:type="MSPage">
        <g id="Activities_sliced" sketch:type="MSLayerGroup" transform="translate(0.000000, -600.000000)"></g>
        <g id="Activities" sketch:type="MSLayerGroup" transform="translate(-14.000000, -602.000000)" stroke-width="2" stroke-linejoin="round">
            <g id="Hacking" transform="translate(16.000000, 622.000000)" sketch:type="MSShapeGroup">
                <rect id="Rectangle-1122" stroke="#314E55" stroke-linecap="round" fill="#5ECB66" x="0" y="0" width="56" height="22"></rect>
                <g id="Line-+-Line-264" transform="translate(10.000000, 10.000000) rotate(-45.000000) translate(-10.000000, -10.000000) translate(4.000000, 4.000000)" stroke="#535353" stroke-linecap="round">
                    <path d="M6,0 L6,12" id="Line"></path>
                    <path d="M6,0 L6,12" id="Line-264" transform="translate(6.000000, 6.000000) rotate(-90.000000) translate(-6.000000, -6.000000) "></path>
                </g>
                <g id="Line-+-Line-264" transform="translate(22.000000, 10.000000) rotate(-45.000000) translate(-22.000000, -10.000000) translate(16.000000, 4.000000)" stroke="#535353" stroke-linecap="round">
                    <path d="M6,0 L6,12" id="Line"></path>
                    <path d="M6,0 L6,12" id="Line-264" transform="translate(6.000000, 6.000000) rotate(-90.000000) translate(-6.000000, -6.000000) "></path>
                </g>
                <path d="M6,18 L14,18" id="Line" stroke="#314E55" stroke-linecap="square"></path>
                <path d="M18,18 L26,18" id="Line" stroke="#314E55" stroke-linecap="square"></path>
                <path d="M30,18 L38,18" id="Line" stroke="#314E55" stroke-linecap="square"></path>
                <path d="M42,18 L50,18" id="Line" stroke="#314E55" stroke-linecap="square"></path>
                <path d="M0,26 L56.0089264,26" id="Line" stroke="#314E55" stroke-linecap="square"></path>
            </g>
        </g>
    </g>
</svg>