<?xml version="1.0" encoding="UTF-8" standalone="no"?>
<svg width="60px" height="60px" viewBox="0 0 60 60" version="1.1" xmlns="http://www.w3.org/2000/svg" xmlns:xlink="http://www.w3.org/1999/xlink" xmlns:sketch="http://www.bohemiancoding.com/sketch/ns">
    <!-- Generator: Sketch 3.2.2 (9983) - http://www.bohemiancoding.com/sketch -->
    <title>Mask</title>
    <desc>Created with Sketch.</desc>
    <defs></defs>
    <g id="colored" stroke="none" stroke-width="1" fill="none" fill-rule="evenodd" sketch:type="MSPage">
        <g id="Activities_sliced" sketch:type="MSLayerGroup" transform="translate(-720.000000, -120.000000)"></g>
        <g id="Activities" sketch:type="MSLayerGroup" transform="translate(-734.000000, -122.000000)" stroke="#314E55" stroke-width="2" stroke-linecap="round" stroke-linejoin="round">
            <g id="Mask" transform="translate(736.000000, 123.000000)" sketch:type="MSShapeGroup">
                <g id="Group" transform="translate(35.483973, 24.653358) rotate(-345.000000) translate(-35.483973, -24.653358) translate(16.983973, 4.653358)">
                    <path d="M33.2700434,1.06785933 C35.6009905,5.05248478 36.9866532,10.0403384 36.9866532,15.4531612 C36.9866532,28.5068198 18.9866532,39.0889008 18.9866532,39.0889008 C18.9866532,39.0889008 0.98665315,28.5068198 0.98665315,15.4531612 C0.98665315,9.58735946 2.61394202,4.22063121 5.30807021,0.0889008453 C8.42652595,4.60689938 13.6880121,7.5745813 19.6533198,7.5745813 C25.176263,7.5745813 30.0958997,5.03072367 33.2700434,1.06785933 Z" id="Oval-828" fill="#C59981"></path>
                    <path d="M24.4413022,14.9335592 C24.4413022,14.9335592 26.5238892,11.6261599 30.6009643,11.3267163" id="Path-1963"></path>
                    <path d="M7.94171459,14.9335592 C7.94171459,14.9335592 10.0243016,11.6261599 14.1013767,11.3267163" id="Path-1963" transform="translate(11.021546, 13.130138) scale(-1, 1) translate(-11.021546, -13.130138) "></path>
                    <path d="M12.9156409,26.1437213 C14.134813,27.9068503 16.3772155,29.0889008 18.9417146,29.0889008 C21.4898342,29.0889008 23.7199587,27.9219016 24.9443028,26.1774332" id="Oval-830"></path>
                </g>
                <g id="Group" transform="translate(13.580892, 43.373178) rotate(-30.000000) translate(-13.580892, -43.373178) translate(4.580892, 33.373178)">
                    <path d="M16.0042592,0.561588578 C17.1582032,2.53419219 17.8441806,5.00344766 17.8441806,7.68308564 C17.8441806,14.1453478 8.9332138,19.3840463 8.9332138,19.3840463 C8.9332138,19.3840463 0.0222470022,14.1453478 0.0222470022,7.68308564 C0.0222470022,4.77919873 0.827842394,2.12237999 2.16158055,0.0769515459 C3.70538364,2.31360349 6.3101019,3.78276543 9.2632496,3.78276543 C11.9974031,3.78276543 14.4328875,2.52341927 16.0042592,0.561588578 Z" id="Oval-828" fill="#D8D8D8"></path>
                    <path d="M11.633558,7.42585474 C11.633558,7.42585474 12.6645505,5.78851444 14.6829216,5.64027378" id="Path-1963"></path>
                    <path d="M3.46537598,7.42585474 C3.46537598,7.42585474 4.49636839,5.78851444 6.51473956,5.64027378" id="Path-1963" transform="translate(4.990058, 6.533064) scale(-1, 1) translate(-4.990058, -6.533064) "></path>
                    <path d="M5.92773663,12.9754871 C6.53129231,13.8483307 7.64140203,14.4335092 8.91096679,14.4335092 C10.1724229,14.4335092 11.2764543,13.8557818 11.8825704,12.9921763" id="Oval-830"></path>
                </g>
            </g>
        </g>
    </g>
</svg>