<?xml version="1.0" encoding="UTF-8" standalone="no"?>
<svg width="60px" height="60px" viewBox="0 0 60 60" version="1.1" xmlns="http://www.w3.org/2000/svg" xmlns:xlink="http://www.w3.org/1999/xlink" xmlns:sketch="http://www.bohemiancoding.com/sketch/ns">
    <!-- Generator: Sketch 3.2.2 (9983) - http://www.bohemiancoding.com/sketch -->
    <title>Pokeball</title>
    <desc>Created with Sketch.</desc>
    <defs></defs>
    <g id="colored" stroke="none" stroke-width="1" fill="none" fill-rule="evenodd" sketch:type="MSPage">
        <g id="Activities_sliced" sketch:type="MSLayerGroup" transform="translate(-600.000000, -960.000000)"></g>
        <g id="Activities" sketch:type="MSLayerGroup" transform="translate(-614.000000, -962.000000)" stroke="#314E55" stroke-width="2" stroke-linecap="round" stroke-linejoin="round">
            <g id="Pokeball" transform="translate(617.000000, 965.000000)" sketch:type="MSShapeGroup">
                <circle id="Oval-1028" fill="#EAEAEA" cx="27" cy="27" r="27"></circle>
                <path d="M44.5959981,12.1876915 C40.3769283,7.18089323 34.0599329,4 27,4" id="Oval-1031"></path>
                <path d="M14.3478637,30 C15.7021913,35.7334 20.8528367,40 27,40 C33.1471633,40 38.2978087,35.7334 39.6521363,30 L39.6521363,30 L54,30 L54,24 L39.6521363,24 C38.2978087,18.2666 33.1471633,14 27,14 C20.8528367,14 15.7021913,18.2666 14.3478637,24 L0,24 L0,30 L14.3478637,30 Z M27,34 C30.8659932,34 34,30.8659932 34,27 C34,23.1340068 30.8659932,20 27,20 C23.1340068,20 20,23.1340068 20,27 C20,30.8659932 23.1340068,34 27,34 Z" id="Oval-1029" fill="#73C9C9"></path>
            </g>
        </g>
    </g>
</svg>