<?xml version="1.0" encoding="UTF-8" standalone="no"?>
<svg width="60px" height="60px" viewBox="0 0 60 60" version="1.1" xmlns="http://www.w3.org/2000/svg" xmlns:xlink="http://www.w3.org/1999/xlink" xmlns:sketch="http://www.bohemiancoding.com/sketch/ns">
    <!-- Generator: Sketch 3.2.2 (9983) - http://www.bohemiancoding.com/sketch -->
    <title>Race</title>
    <desc>Created with Sketch.</desc>
    <defs></defs>
    <g id="colored" stroke="none" stroke-width="1" fill="none" fill-rule="evenodd" sketch:type="MSPage">
        <g id="Activities_sliced" sketch:type="MSLayerGroup" transform="translate(0.000000, -120.000000)"></g>
        <g id="Activities" sketch:type="MSLayerGroup" transform="translate(-14.000000, -122.000000)" stroke="#314E55" stroke-width="2" stroke-linejoin="round">
            <g id="Race" transform="translate(23.000000, 126.000000)" sketch:type="MSShapeGroup">
                <rect id="Rectangle-965" stroke-linecap="round" fill="#5ECB66" x="5" y="0" width="17" height="17"></rect>
                <rect id="Rectangle-965" stroke-linecap="round" fill="#5ECB66" x="20" y="5" width="17" height="17"></rect>
                <rect id="Rectangle-966" stroke-linecap="round" x="5" y="0" width="7" height="7"></rect>
                <rect id="Rectangle-966" stroke-linecap="round" fill="#5ECB66" x="20" y="5" width="7" height="7"></rect>
                <rect id="Rectangle-966" stroke-linecap="round" fill="#5ECB66" x="10" y="0" width="7" height="7"></rect>
                <rect id="Rectangle-966" stroke-linecap="round" x="25" y="5" width="7" height="7"></rect>
                <rect id="Rectangle-966" stroke-linecap="round" fill="#5ECB66" x="15" y="0" width="7" height="7"></rect>
                <rect id="Rectangle-966" stroke-linecap="round" fill="#5ECB66" x="30" y="5" width="7" height="7"></rect>
                <rect id="Rectangle-969" stroke-linecap="round" x="5" y="5" width="7" height="7"></rect>
                <rect id="Rectangle-969" stroke-linecap="round" x="20" y="10" width="7" height="7"></rect>
                <rect id="Rectangle-967" stroke-linecap="round" fill="#E65F58" x="10" y="5" width="7" height="7"></rect>
                <rect id="Rectangle-967" stroke-linecap="round" fill="#E65F58" x="25" y="10" width="7" height="7"></rect>
                <rect id="Rectangle-968" stroke-linecap="round" fill="#5ECB66" x="15" y="5" width="7" height="7"></rect>
                <rect id="Rectangle-968" stroke-linecap="round" fill="#5ECB66" x="30" y="10" width="7" height="7"></rect>
                <rect id="Rectangle-972" stroke-linecap="round" x="5" y="10" width="7" height="7"></rect>
                <rect id="Rectangle-972" stroke-linecap="round" fill="#5ECB66" x="20" y="15" width="7" height="7"></rect>
                <rect id="Rectangle-970" stroke-linecap="round" fill="#5ECB66" x="10" y="10" width="7" height="7"></rect>
                <rect id="Rectangle-970" stroke-linecap="round" x="25" y="15" width="7" height="7"></rect>
                <rect id="Rectangle-971" stroke-linecap="round" fill="#5ECB66" x="15" y="10" width="7" height="7"></rect>
                <rect id="Rectangle-971" stroke-linecap="round" fill="#5ECB66" x="30" y="15" width="7" height="7"></rect>
                <rect id="Rectangle-985" stroke-linecap="round" fill="#E9E7D1" x="0" y="0" width="7" height="51"></rect>
                <path d="M10,50 L46.0555115,50" id="Line" stroke-linecap="square" stroke-dasharray="3,4"></path>
            </g>
        </g>
    </g>
</svg>