<?xml version="1.0" encoding="UTF-8" standalone="no"?>
<svg width="60px" height="60px" viewBox="0 0 60 60" version="1.1" xmlns="http://www.w3.org/2000/svg" xmlns:xlink="http://www.w3.org/1999/xlink" xmlns:sketch="http://www.bohemiancoding.com/sketch/ns">
    <!-- Generator: Sketch 3.2.2 (9983) - http://www.bohemiancoding.com/sketch -->
    <title>Rake</title>
    <desc>Created with Sketch.</desc>
    <defs></defs>
    <g id="colored" stroke="none" stroke-width="1" fill="none" fill-rule="evenodd" sketch:type="MSPage">
        <g id="Activities_sliced" sketch:type="MSLayerGroup" transform="translate(-600.000000, -480.000000)"></g>
        <g id="Activities" sketch:type="MSLayerGroup" transform="translate(-614.000000, -482.000000)" stroke="#314E55" stroke-width="2" stroke-linejoin="round">
            <g id="Rake" transform="translate(621.000000, 485.000000)" sketch:type="MSShapeGroup">
                <rect id="Rectangle-1108" stroke-linecap="round" fill="#81A4E3" x="21" y="0" width="6" height="41"></rect>
                <rect id="Rectangle-1108" stroke-linecap="round" fill="#81A4E3" transform="translate(24.000000, 42.000000) rotate(-90.000000) translate(-24.000000, -42.000000) " x="21" y="18" width="6" height="48"></rect>
                <path d="M2,45 L2,53" id="Line" stroke-linecap="square"></path>
                <path d="M6,45 L6,53" id="Line" stroke-linecap="square"></path>
                <path d="M10,45 L10,53" id="Line-254" stroke-linecap="square"></path>
                <path d="M14,45 L14,53" id="Line-253" stroke-linecap="square"></path>
                <path d="M14,45 L14,53" id="Line-258" stroke-linecap="square"></path>
                <path d="M18,45 L18,53" id="Line-255" stroke-linecap="square"></path>
                <path d="M22,45 L22,53" id="Line-256" stroke-linecap="square"></path>
                <path d="M26,45 L26,53" id="Line-257" stroke-linecap="square"></path>
                <path d="M30,45 L30,53" id="Line-262" stroke-linecap="square"></path>
                <path d="M34,45 L34,53" id="Line-259" stroke-linecap="square"></path>
                <path d="M38,45 L38,53" id="Line-260" stroke-linecap="square"></path>
                <path d="M42,45 L42,53" id="Line-261" stroke-linecap="square"></path>
                <path d="M46,45 L46,53" id="Line-261" stroke-linecap="square"></path>
            </g>
        </g>
    </g>
</svg>