<?xml version="1.0" encoding="UTF-8" standalone="no"?>
<svg width="60px" height="60px" viewBox="0 0 60 60" version="1.1" xmlns="http://www.w3.org/2000/svg" xmlns:xlink="http://www.w3.org/1999/xlink" xmlns:sketch="http://www.bohemiancoding.com/sketch/ns">
    <!-- Generator: Sketch 3.2.2 (9983) - http://www.bohemiancoding.com/sketch -->
    <title>Rescuebaloon</title>
    <desc>Created with Sketch.</desc>
    <defs>
        <path id="path-1" d="M16.1624908,59 C16.1624908,59 9.00000004,59.24337 9,65.7871241"></path>
    </defs>
    <g id="colored" stroke="none" stroke-width="1" fill="none" fill-rule="evenodd" sketch:type="MSPage">
        <g id="Activities_sliced" sketch:type="MSLayerGroup" transform="translate(-720.000000, -600.000000)"></g>
        <g id="Activities" sketch:type="MSLayerGroup" transform="translate(-734.000000, -602.000000)">
            <g id="Rescuebaloon" transform="translate(728.000000, 595.000000)">
                <g id="Group" transform="translate(37.192379, 37.666790) rotate(-330.000000) translate(-37.192379, -37.666790) translate(10.192379, 10.666790)" stroke="#314E55" stroke-width="2" stroke-linecap="round" sketch:type="MSShapeGroup" stroke-linejoin="round">
                    <path d="M26.5,53.3847577 C41.1355459,53.3847577 53,41.5203036 53,26.8847577 C53,12.2492119 41.1355459,0.384757729 26.5,0.384757729 C11.8644541,0.384757729 2.96651592e-13,12.2492119 2.96651592e-13,26.8847577 C2.96651592e-13,41.5203036 11.8644541,53.3847577 26.5,53.3847577 Z M26.5,41.3847577 C34.5081289,41.3847577 41,34.8928866 41,26.8847577 C41,18.8766289 34.5081289,12.3847577 26.5,12.3847577 C18.4918711,12.3847577 12,18.8766289 12,26.8847577 C12,34.8928866 18.4918711,41.3847577 26.5,41.3847577 Z" id="Oval-948" fill="#E4AD40"></path>
                    <path d="M34.0728694,1.48258444 C31.6734034,0.768319073 29.1314945,0.384757729 26.5,0.384757729 C23.8685055,0.384757729 21.3265966,0.768319073 18.9271306,1.48258444 L19.8142208,14.0147502 C21.8147748,12.9733693 24.0886486,12.3847577 26.5,12.3847577 C28.9113514,12.3847577 31.1852252,12.9733693 33.1857792,14.0147502 L34.0728694,1.48258444 Z" id="Oval-946" fill="#5ECB66"></path>
                    <path d="M53.7578732,21.1675882 C51.3584072,20.4533229 48.8164982,20.0697615 46.1850038,20.0697615 C43.5535093,20.0697615 41.0116004,20.4533229 38.6121344,21.1675882 L39.4992246,33.6997539 C41.4997785,32.6583731 43.7736524,32.0697615 46.1850038,32.0697615 C48.5963552,32.0697615 50.870229,32.6583731 52.870783,33.6997539 L53.7578732,21.1675882 Z" id="Oval-949" fill="#5ECB66" transform="translate(46.185004, 26.884758) rotate(-270.000000) translate(-46.185004, -26.884758) "></path>
                    <path d="M14.3878656,21.1675882 C11.9883996,20.4533229 9.44649068,20.0697615 6.81499622,20.0697615 C4.18350176,20.0697615 1.64159285,20.4533229 -0.757873193,21.1675882 L0.129217045,33.6997539 C2.12977098,32.6583731 4.4036448,32.0697615 6.81499622,32.0697615 C9.22634763,32.0697615 11.5002215,32.6583731 13.5007754,33.6997539 L14.3878656,21.1675882 Z" id="Oval-949" fill="#5ECB66" transform="translate(6.814996, 26.884758) scale(-1, 1) rotate(-270.000000) translate(-6.814996, -26.884758) "></path>
                    <path d="M34.0728694,40.852592 C31.6734034,40.1383266 29.1314945,39.7547653 26.5,39.7547653 C23.8685055,39.7547653 21.3265966,40.1383266 18.9271306,40.852592 L19.8142208,53.3847577 C21.8147748,52.3433769 24.0886486,51.7547653 26.5,51.7547653 C28.9113514,51.7547653 31.1852252,52.3433769 33.1857792,53.3847577 L34.0728694,40.852592 Z" id="Oval-946" fill="#5ECB66" transform="translate(26.500000, 46.569762) scale(1, -1) translate(-26.500000, -46.569762) "></path>
                </g>
                <path d="M42.9225409,32.9331411 C42.9225409,32.9331411 33.6677663,28.1577508 34.3649962,35.8317156 C35.062226,43.5056804 29.0774591,44.5350446 29.0774591,44.5350446" id="Path-2270" stroke="#314E55" stroke-width="2" stroke-linecap="round" stroke-linejoin="round" stroke-dasharray="3,4" sketch:type="MSShapeGroup"></path>
                <g id="Path-2271">
                    <use stroke="#314E55" stroke-width="2" stroke-linecap="round" stroke-linejoin="round" stroke-dasharray="3,4" sketch:type="MSShapeGroup" xlink:href="#path-1"></use>
                    <use stroke="none" xlink:href="#path-1"></use>
                </g>
            </g>
        </g>
    </g>
</svg>