<?xml version="1.0" encoding="UTF-8" standalone="no"?>
<svg width="60px" height="60px" viewBox="0 0 60 60" version="1.1" xmlns="http://www.w3.org/2000/svg" xmlns:xlink="http://www.w3.org/1999/xlink" xmlns:sketch="http://www.bohemiancoding.com/sketch/ns">
    <!-- Generator: Sketch 3.2.2 (9983) - http://www.bohemiancoding.com/sketch -->
    <title>Ridehelmet</title>
    <desc>Created with Sketch.</desc>
    <defs></defs>
    <g id="colored" stroke="none" stroke-width="1" fill="none" fill-rule="evenodd" sketch:type="MSPage">
        <g id="Activities_sliced" sketch:type="MSLayerGroup" transform="translate(-240.000000, -840.000000)"></g>
        <g id="Activities" sketch:type="MSLayerGroup" transform="translate(-254.000000, -842.000000)" stroke="#314E55" stroke-width="2" stroke-linecap="round" stroke-linejoin="round">
            <g id="Ridehelmet" transform="translate(256.000000, 851.000000)" sketch:type="MSShapeGroup">
                <path d="M43,21 C43,9.40202025 33.5979797,0 22,0 C10.4020203,0 1,9.40202025 1,21 L43,21 Z" id="Oval-1037" fill="#73C9C9"></path>
                <path d="M22,4 C15.3004826,4 9.50610793,7.87537648 6.73632106,13.5066843 C5.62447192,15.7672065 5,18.3106766 5,21" id="Oval-1037"></path>
                <path d="M0,20 L53.4988329,20 C55.4324741,20 57,21.5579834 57,22.7208503 C57,22.7208503 57,22.9811755 57,22.7208503 C57,22.3966249 57,22.7208503 57,22.7208503 C57,24.1176611 55.430947,25.2981727 53.4988329,25.357492 L0,27 L0,20 Z" id="Rectangle-1262" fill="#E9E7D1"></path>
                <path d="M18.8907795,26 C-0.655224217,35.1934215 26.900844,53.8001438 34.3508133,42.9105657 C38.0520965,37.500421 29.3262141,36.0833983 35.9284902,31.1922507" id="Path-2469"></path>
                <circle id="Oval-1037" cx="36.5" cy="30.5" r="2.5"></circle>
            </g>
        </g>
    </g>
</svg>