<?xml version="1.0" encoding="UTF-8" standalone="no"?>
<svg width="60px" height="60px" viewBox="0 0 60 60" version="1.1" xmlns="http://www.w3.org/2000/svg" xmlns:xlink="http://www.w3.org/1999/xlink" xmlns:sketch="http://www.bohemiancoding.com/sketch/ns">
    <!-- Generator: Sketch 3.2.2 (9983) - http://www.bohemiancoding.com/sketch -->
    <title>Thimble</title>
    <desc>Created with Sketch.</desc>
    <defs></defs>
    <g id="colored" stroke="none" stroke-width="1" fill="none" fill-rule="evenodd" sketch:type="MSPage">
        <g id="Activities_sliced" sketch:type="MSLayerGroup" transform="translate(0.000000, -240.000000)"></g>
        <g id="Activities" sketch:type="MSLayerGroup" transform="translate(-14.000000, -242.000000)" stroke="#314E55" stroke-width="2" stroke-linecap="round" stroke-linejoin="round">
            <g id="Thimble" transform="translate(24.000000, 249.000000)" sketch:type="MSShapeGroup">
                <rect id="Rectangle-1002" fill="#EAEAEA" x="3" y="0" width="33" height="41"></rect>
                <rect id="Rectangle-1003" fill="#D8D8D8" x="0" y="39" width="39" height="8" rx="9"></rect>
                <rect id="Rectangle-1005" x="14" y="10" width="2" height="2"></rect>
                <rect id="Rectangle-1006" x="18" y="10" width="2" height="2"></rect>
                <rect id="Rectangle-1008" x="18" y="6" width="2" height="2"></rect>
                <rect id="Rectangle-1007" x="22" y="10" width="2" height="2"></rect>
                <rect id="Rectangle-1028" x="10" y="26" width="2" height="2"></rect>
                <rect id="Rectangle-1024" x="14" y="26" width="2" height="2"></rect>
                <rect id="Rectangle-1025" x="18" y="26" width="2" height="2"></rect>
                <rect id="Rectangle-1026" x="22" y="26" width="2" height="2"></rect>
                <rect id="Rectangle-1027" x="26" y="26" width="2" height="2"></rect>
                <rect id="Rectangle-1033" x="8" y="30" width="2" height="2"></rect>
                <rect id="Rectangle-1029" x="12" y="30" width="2" height="2"></rect>
                <rect id="Rectangle-1030" x="16" y="30" width="2" height="2"></rect>
                <rect id="Rectangle-1031" x="20" y="30" width="2" height="2"></rect>
                <rect id="Rectangle-1032" x="24" y="30" width="2" height="2"></rect>
                <rect id="Rectangle-1041" x="28" y="30" width="2" height="2"></rect>
                <rect id="Rectangle-1038" x="10" y="34" width="2" height="2"></rect>
                <rect id="Rectangle-1034" x="14" y="34" width="2" height="2"></rect>
                <rect id="Rectangle-1035" x="18" y="34" width="2" height="2"></rect>
                <rect id="Rectangle-1036" x="22" y="34" width="2" height="2"></rect>
                <rect id="Rectangle-1037" x="26" y="34" width="2" height="2"></rect>
                <rect id="Rectangle-1013" x="12" y="14" width="2" height="2"></rect>
                <rect id="Rectangle-1039" x="8" y="14" width="2" height="2"></rect>
                <rect id="Rectangle-1009" x="16" y="14" width="2" height="2"></rect>
                <rect id="Rectangle-1010" x="20" y="14" width="2" height="2"></rect>
                <rect id="Rectangle-1011" x="24" y="14" width="2" height="2"></rect>
                <rect id="Rectangle-1012" x="28" y="14" width="2" height="2"></rect>
                <rect id="Rectangle-1018" x="10" y="18" width="2" height="2"></rect>
                <rect id="Rectangle-1014" x="14" y="18" width="2" height="2"></rect>
                <rect id="Rectangle-1015" x="18" y="18" width="2" height="2"></rect>
                <rect id="Rectangle-1016" x="22" y="18" width="2" height="2"></rect>
                <rect id="Rectangle-1017" x="26" y="18" width="2" height="2"></rect>
                <rect id="Rectangle-1023" x="12" y="22" width="2" height="2"></rect>
                <rect id="Rectangle-1040" x="8" y="22" width="2" height="2"></rect>
                <rect id="Rectangle-1019" x="16" y="22" width="2" height="2"></rect>
                <rect id="Rectangle-1020" x="20" y="22" width="2" height="2"></rect>
                <rect id="Rectangle-1021" x="24" y="22" width="2" height="2"></rect>
                <rect id="Rectangle-1022" x="28" y="22" width="2" height="2"></rect>
            </g>
        </g>
    </g>
</svg>